<svg id="micon-help" viewBox="0 0 16 16" width="100%" height="100%">
    <path d="M8.016.219C3.607.219 0 3.826 0 8.235s3.607 8.016 8.016 8.016 8.016-3.607 8.016-8.016S12.425.219 8.016.219zm0 14.027c-3.306 0-6.012-2.705-6.012-6.012s2.705-6.012 6.012-6.012 6.012 2.705 6.012 6.012-2.705 6.012-6.012 6.012zm3.006-7.016c.002 1.655-1.376 3.009-3.031 3.009h-.977V9.221c0-.545.441-.986.986-.986.55 0 1.008-.437 1.018-.986a1.002 1.002 0 0 0-2.004-.016H5.01a3.007 3.007 0 0 1 6.012-.003zm-2.004 5.013H7.014v-1.002h2.004v1.002z"></path>
</svg>
