<svg id="Layer_1" data-name="Layer 1" xmlns="http://www.w3.org/2000/svg" viewBox="0 0 283.46 198.43"><defs><style>.cls-1{fill:#005350;}</style></defs><title>0% Finance_1</title><path class="cls-1" d="M163,104.94a12.47,12.47,0,0,0-1.79,7.11,12.69,12.69,0,0,0,1.79,7.16,5.85,5.85,0,0,0,9.81,0,12.69,12.69,0,0,0,1.79-7.16,12.47,12.47,0,0,0-1.79-7.11,5.91,5.91,0,0,0-9.81,0m18.3-7.1q4.94,5.31,4.95,14.21t-4.95,14.31q-5,5.33-13.39,5.32t-13.44-5.32q-5-5.33-5-14.31t5-14.21q5-5.32,13.44-5.32t13.39,5.32M158,67h12.47l-45.12,64.29H112.8ZM110.73,79.17A12.47,12.47,0,0,0,109,86.28a12.69,12.69,0,0,0,1.78,7.16,5.87,5.87,0,0,0,9.82,0,12.69,12.69,0,0,0,1.79-7.16,12.47,12.47,0,0,0-1.79-7.11,5.92,5.92,0,0,0-9.82,0m18.3-7.1q5,5.31,5,14.21t-5,14.31q-4.95,5.32-13.39,5.32t-13.44-5.32q-5-5.32-5-14.31t5-14.21q5-5.32,13.44-5.32T129,72.07"/><path class="cls-1" d="M141.73,162.2a63,63,0,1,1,63-63,63,63,0,0,1-63,63M226.38,100l.86-.32.08-1.59-.77-.31A7.47,7.47,0,0,1,223,95.88c0-1.35-.14-2.68-.26-4a6.54,6.54,0,0,1,3.06-2.52l.81-.42-.12-1.59-.81-.21a7.5,7.5,0,0,1-3.72-1.4c-.23-1.34-.48-2.67-.77-4a6.55,6.55,0,0,1,2.71-2.86l.75-.52-.32-1.56-.82-.1a7.52,7.52,0,0,1-3.86-.92c-.4-1.31-.82-2.6-1.27-3.87a6.53,6.53,0,0,1,2.32-3.17l.69-.61-.52-1.51h-.83a7.61,7.61,0,0,1-4-.42c-.55-1.25-1.13-2.47-1.74-3.68a6.54,6.54,0,0,1,1.91-3.44l.6-.69-.7-1.43-.82.1a7.43,7.43,0,0,1-4,.07c-.7-1.15-1.42-2.29-2.18-3.41a6.52,6.52,0,0,1,1.47-3.66l.51-.76L210.29,48l-.8.21a7.62,7.62,0,0,1-4,.57c-.84-1.06-1.69-2.09-2.58-3.1a6.44,6.44,0,0,1,1-3.83l.41-.82-1-1.22-.77.31a7.58,7.58,0,0,1-3.86,1.06c-.95-.94-1.93-1.86-2.93-2.74a6.51,6.51,0,0,1,.5-3.94l.3-.86-1.18-1.08-.72.4A7.43,7.43,0,0,1,191,34.46c-1.07-.81-2.16-1.6-3.27-2.36a6.46,6.46,0,0,1,0-4l.19-.9-1.31-.92-.67.49a7.58,7.58,0,0,1-3.45,2c-1.17-.68-2.36-1.33-3.56-2a6.46,6.46,0,0,1-.47-3.9l.07-.91-1.41-.75-.6.57a7.51,7.51,0,0,1-3.16,2.39c-1.25-.53-2.52-1-3.8-1.5a6.45,6.45,0,0,1-.95-3.8l0-.91-1.49-.57-.53.64a7.47,7.47,0,0,1-2.84,2.77c-1.3-.37-2.62-.7-4-1a6.58,6.58,0,0,1-1.43-3.66l-.15-.91-1.55-.37-.44.7a7.49,7.49,0,0,1-2.49,3.11c-1.32-.2-2.66-.36-4-.49a6.5,6.5,0,0,1-1.9-3.47l-.26-.88L146,13.72l-.35.76a7.4,7.4,0,0,1-2.09,3.4l-1.78,0c-.75,0-1.49,0-2.24,0a6.46,6.46,0,0,1-2.32-3.2l-.37-.84-1.59,0-.26.79a7.54,7.54,0,0,1-1.64,3.63c-1.35.14-2.69.31-4,.52a6.49,6.49,0,0,1-2.69-2.88l-.47-.79-1.58.22-.15.82A7.44,7.44,0,0,1,123.24,20c-1.32.31-2.64.65-3.94,1a6.47,6.47,0,0,1-3-2.51l-.57-.72-1.53.42-.06.82a7.37,7.37,0,0,1-.67,3.91c-1.28.48-2.54,1-3.78,1.51a6.51,6.51,0,0,1-3.31-2.12l-.65-.64-1.47.61,0,.82a7.59,7.59,0,0,1-.18,4c-1.2.62-2.38,1.28-3.55,2A6.47,6.47,0,0,1,97,27.34l-.73-.56-1.38.79.15.81a7.51,7.51,0,0,1,.32,4c-1.11.77-2.19,1.56-3.25,2.38a6.48,6.48,0,0,1-3.76-1.23l-.8-.46-1.27,1,.25.78a7.56,7.56,0,0,1,.82,3.92c-1,.9-2,1.81-2.93,2.76a6.5,6.5,0,0,1-3.89-.75l-.84-.36-1.15,1.11.35.75A7.44,7.44,0,0,1,80.2,46c-.88,1-1.73,2.06-2.56,3.12a6.53,6.53,0,0,1-4-.26l-.88-.25-1,1.24.45.7A7.48,7.48,0,0,1,74,54.12q-1.11,1.68-2.16,3.42a6.48,6.48,0,0,1-3.93.23L67,57.64,66.18,59l.52.63A7.46,7.46,0,0,1,68.89,63c-.6,1.21-1.18,2.44-1.72,3.69a6.51,6.51,0,0,1-3.86.71l-.92,0-.66,1.45.61.57a7.6,7.6,0,0,1,2.58,3c-.45,1.28-.86,2.57-1.25,3.88a6.49,6.49,0,0,1-3.74,1.19l-.91.1-.47,1.52.67.49a7.5,7.5,0,0,1,2.94,2.67c-.28,1.31-.53,2.64-.74,4a6.48,6.48,0,0,1-3.57,1.67l-.9.2-.27,1.57.72.4a7.55,7.55,0,0,1,3.27,2.3c-.11,1.33-.19,2.66-.24,4a6.44,6.44,0,0,1-3.35,2.12l-.86.32-.07,1.59.77.3a7.6,7.6,0,0,1,3.53,1.87c.06,1.35.14,2.69.26,4a6.44,6.44,0,0,1-3.05,2.51l-.82.43.13,1.59.8.2a7.49,7.49,0,0,1,3.73,1.41c.22,1.33.48,2.66.76,4a6.5,6.5,0,0,1-2.7,2.85l-.76.53.32,1.56.83.1a7.58,7.58,0,0,1,3.86.92c.39,1.31.81,2.6,1.27,3.87a6.47,6.47,0,0,1-2.33,3.16l-.68.62.51,1.5h.83a7.59,7.59,0,0,1,4,.43c.55,1.24,1.13,2.47,1.74,3.68a6.49,6.49,0,0,1-1.91,3.43l-.6.69.7,1.44.82-.1a7.56,7.56,0,0,1,4-.08c.7,1.16,1.43,2.31,2.18,3.42a6.54,6.54,0,0,1-1.46,3.66l-.51.76.87,1.33.8-.2a7.52,7.52,0,0,1,4-.57c.84,1,1.7,2.09,2.58,3.1a6.44,6.44,0,0,1-1,3.83l-.41.82,1,1.21.77-.3a7.53,7.53,0,0,1,3.85-1.06c1,.94,1.94,1.86,2.94,2.75a6.4,6.4,0,0,1-.51,3.92l-.3.87,1.18,1.07.73-.39A7.37,7.37,0,0,1,92.48,164c1.07.81,2.16,1.6,3.27,2.36a6.5,6.5,0,0,1,0,3.95l-.19.9,1.3.91.67-.48a7.49,7.49,0,0,1,3.45-2c1.17.68,2.36,1.33,3.57,2a6.54,6.54,0,0,1,.47,3.9l-.08.91,1.41.74.6-.56a7.51,7.51,0,0,1,3.16-2.39q1.89.8,3.81,1.5a6.5,6.5,0,0,1,1,3.79l0,.92,1.49.57.52-.64a7.55,7.55,0,0,1,2.84-2.77c1.31.37,2.62.7,4,1a6.53,6.53,0,0,1,1.42,3.66l.15.91,1.55.37.45-.7a7.49,7.49,0,0,1,2.48-3.11c1.33.2,2.66.36,4,.49a6.45,6.45,0,0,1,1.89,3.47l.27.87,1.58.18.36-.75a7.48,7.48,0,0,1,2.08-3.4l1.78,0q1.13,0,2.25,0a6.44,6.44,0,0,1,2.31,3.2l.38.84,1.59,0,.26-.79a7.45,7.45,0,0,1,1.63-3.63c1.35-.14,2.69-.31,4-.52a6.53,6.53,0,0,1,2.67,2.88l.48.79,1.57-.23.16-.81a7.42,7.42,0,0,1,1.16-3.79c1.33-.31,2.65-.65,3.95-1a6.54,6.54,0,0,1,3,2.52l.57.72,1.54-.42.05-.83a7.56,7.56,0,0,1,.67-3.9c1.28-.48,2.54-1,3.79-1.52a6.52,6.52,0,0,1,3.3,2.13l.66.64,1.47-.61-.06-.83a7.54,7.54,0,0,1,.19-4c1.2-.62,2.38-1.28,3.55-2a6.42,6.42,0,0,1,3.55,1.69l.73.55,1.39-.78-.16-.82a7.57,7.57,0,0,1-.32-4c1.11-.77,2.2-1.57,3.26-2.39a6.53,6.53,0,0,1,3.76,1.24l.79.46,1.28-1-.26-.79a7.48,7.48,0,0,1-.81-3.91c1-.9,2-1.82,2.93-2.76a6.48,6.48,0,0,1,3.88.75l.85.36,1.14-1.11-.35-.75a7.67,7.67,0,0,1-1.3-3.78c.88-1,1.74-2.05,2.57-3.11a6.49,6.49,0,0,1,3.94.26l.88.25,1-1.25-.44-.7a7.45,7.45,0,0,1-1.76-3.57c.75-1.12,1.47-2.27,2.16-3.42a6.55,6.55,0,0,1,3.94-.24l.9.14.84-1.36-.53-.64a7.53,7.53,0,0,1-2.19-3.31c.61-1.22,1.18-2.45,1.72-3.69a6.55,6.55,0,0,1,3.87-.71l.92,0,.65-1.46-.6-.56a7.62,7.62,0,0,1-2.59-3c.45-1.28.87-2.57,1.25-3.88a6.53,6.53,0,0,1,3.74-1.2l.92-.09.47-1.52-.68-.49a7.5,7.5,0,0,1-2.94-2.67c.28-1.32.53-2.65.74-4a6.52,6.52,0,0,1,3.58-1.67l.89-.21.28-1.57-.73-.4a7.46,7.46,0,0,1-3.27-2.29c.11-1.33.19-2.67.24-4a6.44,6.44,0,0,1,3.35-2.12"/></svg>