<svg id="Layer_1" data-name="Layer 1" xmlns="http://www.w3.org/2000/svg" viewBox="0 0 283.46 198.43"><defs><style>.cls-1{fill:#025b55;}.cls-2{fill:#fff;}</style></defs><title>FREE 6 Week Servicing</title><path class="cls-1" d="M198.9,80.83a46.58,46.58,0,0,0-14.61,2.35l-13-30.26.07-.19,2.62-6.94,8.4,1.69a4.12,4.12,0,0,0,.86.09,4.26,4.26,0,0,0,2.68-1,4.19,4.19,0,0,0,1.57-3.3v-8a4.25,4.25,0,0,0-4.25-4.28H143.77a4.26,4.26,0,0,0-.83,8.45l21.75,4.39-3.28,8.8H78.33l3.76-12a9.24,9.24,0,0,1,8.45-6.5c.14,0,.27,0,.41,0H108a4.8,4.8,0,1,0,0-9.59H91a4.85,4.85,0,0,0-1.83.36A18.58,18.58,0,0,0,73.18,38L59.67,81.57a45.3,45.3,0,0,0-9.23-.93,46.51,46.51,0,1,0,18.13,3.68l3.69-12,55,61a9.27,9.27,0,0,0,6.9,3.09h6l13.06-1A46.48,46.48,0,1,0,198.9,80.83ZM87.64,127.13A37.18,37.18,0,1,1,50.44,90a41.61,41.61,0,0,1,6.5.54L46,125.77a4.63,4.63,0,1,0,8.85,2.72L65.79,93.23A37.21,37.21,0,0,1,87.64,127.13Zm46-.5L75.47,62.06H157.9Zm18.79-.52-8.73.65,22.73-61L175.69,87A46.43,46.43,0,0,0,152.46,126.11Z"/><polygon class="cls-2" points="226.02 134.87 206.49 134.87 206.49 154.4 190.09 154.4 190.09 134.87 170.55 134.87 170.55 118.47 190.09 118.47 190.09 98.94 206.49 98.94 206.49 118.47 226.02 118.47 226.02 134.87"/></svg>