<svg id="Layer_1" data-name="Layer 1" xmlns="http://www.w3.org/2000/svg" viewBox="0 0 283.46 198.43"><defs><style>.cls-1{fill:#02524c;}.cls-2{fill:#01524c;}</style></defs><title>FREE 90 Days Return</title><path class="cls-1" d="M231.86,30.17a7,7,0,0,0-1.77-4.32,103.13,103.13,0,0,0-9.48-9.22,9.42,9.42,0,0,0-5.51-2.3q-74.82-.18-149.64-.09c-1.16,0-2.32.11-3.88.18v4.8q0,56.75,0,113.48c0,14.5-1.27,28.61-10.05,40.92-.07.11.12.4.3.92H75.39v9.65H231.75c.07-1.09.17-2,.18-2.94Q231.93,105.71,231.86,30.17Zm-48.74,2.35a6.13,6.13,0,0,1,6,6.21,6.53,6.53,0,0,1-6.3,6.07,6.29,6.29,0,0,1-6.07-6.56A5.91,5.91,0,0,1,183.12,32.52Zm-88.7,0a5.83,5.83,0,0,1,6,6.09,6.14,6.14,0,1,1-12.28-.24A6,6,0,0,1,94.42,32.52Zm113.31,100c-.06,9.71-1.6,19.2-6.24,28-1.17,2.23-2.54,3.27-5.24,3.26q-61.93-.13-123.87-.07c-1.06,0-2.11-.11-3.23-.18.86-5.24,1.91-10.23,2.45-15.27a164.72,164.72,0,0,0,1-16.76c.11-24.11,0-48.21,0-72.32v-5H207.82c0,1.4,0,2.66,0,3.92C207.81,82.88,207.88,107.71,207.73,132.53Z"/><path class="cls-2" d="M112.59,115.66a16.25,16.25,0,0,1-3.21,1,19,19,0,0,1-3.73.35q-8.58,0-14-5.47T86.33,97.32q0-9.84,6.35-16.11T109,75q10.45,0,16.65,6.52t6.19,17.59a45.81,45.81,0,0,1-7.64,25.16A53.87,53.87,0,0,1,103.54,143l-7.79-9.71a51.71,51.71,0,0,0,10.46-8.18A31.65,31.65,0,0,0,112.59,115.66Zm3.8-11.73a25.45,25.45,0,0,0,.68-3.16,20.57,20.57,0,0,0,.21-2.88c0-3.26-.71-5.81-2.14-7.67a6.94,6.94,0,0,0-5.83-2.79A8,8,0,0,0,103.09,90a9.67,9.67,0,0,0-2.32,6.8A10.78,10.78,0,0,0,103,104a7.69,7.69,0,0,0,6.19,2.65,11,11,0,0,0,3.73-.61A11.53,11.53,0,0,0,116.39,103.93Z"/><path class="cls-2" d="M139.46,109q0-15.66,6.38-24.78t17.06-9.12q10.74,0,17.1,9.1t6.35,24.8q0,15.66-6.35,24.78t-17.1,9.13q-10.68,0-17.06-9.15T139.46,109ZM155,109q0,11,1.92,16.25t6,5.23q4,0,6-5.28t2-16.2q0-11-2-16.29t-6-5.33c-2.69,0-4.67,1.76-6,5.26S155,101.54,155,109Z"/></svg>