<svg id="Layer_1" data-name="Layer 1" xmlns="http://www.w3.org/2000/svg" viewBox="0 0 283.46 198.43"><defs><style>.cls-1{fill:#025b55;}</style></defs><title>FREE Delivery</title><path class="cls-1" d="M211.66,124.32a27,27,0,1,0,27,27A27,27,0,0,0,211.66,124.32Zm0,38.24a11.27,11.27,0,1,1,11.27-11.27A11.28,11.28,0,0,1,211.66,162.56Z"/><path class="cls-1" d="M155.55,55.93H97.72a1.61,1.61,0,0,0,0,3.22h57.83a1.61,1.61,0,0,0,0-3.22Z"/><path class="cls-1" d="M165.74,63.36H107.91a1.21,1.21,0,1,0,0,2.42h57.83a1.21,1.21,0,0,0,0-2.42Z"/><path class="cls-1" d="M173.08,70.28H131.36a.81.81,0,0,0,0,1.62h41.72a.81.81,0,0,0,0-1.62Z"/><path class="cls-1" d="M269.74,139.2h-1.58V24a3.79,3.79,0,0,0-3.79-3.79h-166A3.78,3.78,0,0,0,94.57,24V53.88a7.3,7.3,0,0,0-2.92-.6H62.89a7.61,7.61,0,0,0-6,2.92L42.73,74.59,16.15,100.44a7.6,7.6,0,0,0-2.29,5.42v34.47h-.13a3.78,3.78,0,0,0,0,7.56H27.78a.74.74,0,0,0,.26,0H41.3a29,29,0,0,1,57.45-1.13h77.59a3.75,3.75,0,0,0,3.66-2.9,32.51,32.51,0,0,1,63.31,0,3.76,3.76,0,0,0,3.66,2.9h22.77a3.77,3.77,0,0,0,0-7.53ZM91.65,89.12H48.39v-9.5l5.21-6.76L62.89,60.8H91.65Zm169,50.08H249.87a40.06,40.06,0,0,0-76.4,0H102.13V27.72H260.6Z"/><path class="cls-1" d="M211.66,147.56a3.73,3.73,0,1,1-3.73,3.73,3.74,3.74,0,0,1,3.73-3.73m0-3.77a7.5,7.5,0,1,0,7.5,7.5,7.5,7.5,0,0,0-7.5-7.5Z"/><path class="cls-1" d="M70,128.09a23.2,23.2,0,1,0,23.2,23.2A23.23,23.23,0,0,0,70,128.09ZM70,161a9.7,9.7,0,1,1,9.69-9.69A9.71,9.71,0,0,1,70,161Z"/><path class="cls-1" d="M70,148.08a3.21,3.21,0,1,1-3.21,3.21A3.22,3.22,0,0,1,70,148.08m0-3.24a6.45,6.45,0,1,0,6.45,6.45A6.45,6.45,0,0,0,70,144.84Z"/></svg>