<svg id="Layer_1" data-name="Layer 1" xmlns="http://www.w3.org/2000/svg" viewBox="0 0 283.46 198.43"><defs><style>.cls-1,.cls-2,.cls-3,.cls-4{fill:#025b55;}.cls-1,.cls-2,.cls-3{stroke:#025b55;stroke-linecap:round;stroke-linejoin:round;}.cls-1{stroke-width:1.71px;}.cls-2{stroke-width:1.28px;}.cls-3{stroke-width:0.85px;}.cls-5{fill:#fff;}</style></defs><title>International Delivery</title><line class="cls-1" x1="189.56" y1="100.36" x2="254.61" y2="103.91"/><line class="cls-2" x1="200.59" y1="108.89" x2="265.65" y2="112.44"/><line class="cls-3" x1="226.58" y1="117.67" x2="273.5" y2="120.23"/><path class="cls-4" d="M66.8,107.17q-25.3-2-36.36-4.9T19.76,94.63q.38-4.81,11.4-6t37,.78L86.72,68.14l-2.57-.2a11.5,11.5,0,0,1-5.52-1.55,3.74,3.74,0,0,1,.51-6.5,11.24,11.24,0,0,1,5.68-.69l9,.69,11.89-13.84-2.47-.2a11.6,11.6,0,0,1-5.57-1.55,3.68,3.68,0,0,1,.5-6.5,11.59,11.59,0,0,1,5.75-.68l9,.69Q120,27.43,126.2,23.46a22.15,22.15,0,0,1,14-3.36l2.36.18q-13.92,23.94-22.49,42.21t-9,24.1q-.48,6.15,20.16,8.89,16.51,2.17,28.16,4.64,2.37-1.5,7-6.72t12.18-14.66c2.06-.36,4.16-.66,6.32-.86s4.37-.38,6.63-.51Q187.76,85.08,185,91.8a121.45,121.45,0,0,0-4.43,12.9,21.67,21.67,0,0,1,3.29,1,22.33,22.33,0,0,1,3.58,1.86,28.35,28.35,0,0,1-3.28,1c-1.19.28-2.51.52-3.95.71a130.63,130.63,0,0,0,2.55,13.78q1.69,7.17,4.25,14.92-5.22-1.08-12-3.07a3.55,3.55,0,0,1-.65-.28q-6-10.59-9.78-16.48c-2.55-3.91-4.49-6.42-5.85-7.49q-11.18.38-27.26,0-22.17-.49-22.66,5.8-.44,5.7,5.18,24.85t15.76,45.5l-2.36-.18A22.28,22.28,0,0,1,114,181.2q-5.53-4.89-11-16.22l-9-.71a11.67,11.67,0,0,1-5.56-1.55,3.57,3.57,0,0,1-1.71-3.41A3.52,3.52,0,0,1,89,156.22a11.65,11.65,0,0,1,5.74-.68l2.46.19-9.61-15.51-9-.7A11.24,11.24,0,0,1,73.1,138a3.6,3.6,0,0,1-1.66-3.39,3.57,3.57,0,0,1,2.17-3.11,11.23,11.23,0,0,1,5.68-.68l2.58.19Z"/><path class="cls-4" d="M169.57,116.71c-14.5-.94-156.16,3.33-153.83-19.65.4-4-.41,4,0,0,3-29.33,113.37-.57,127.57,1.93,20.06,3.53,25.35-1.75,36-7.67"/><path class="cls-5" d="M162.16,111.63q-9.63-.13-19.27-.38c-6.43-.18-12.85-.41-19.27-.65q-19.26-.78-38.5-2.06c-12.82-.93-25.64-1.93-38.4-3.51l-9.56-1.3-4.76-.79c-1.59-.28-3.18-.49-4.75-.85a25.83,25.83,0,0,1-9-3.54,7,7,0,0,1-2.93-3.77,6.06,6.06,0,0,1,.86-4.63,6.08,6.08,0,0,0-.76,4.6,7,7,0,0,0,3,3.62,25.75,25.75,0,0,0,8.94,3.28c3.15.56,6.34,1,9.5,1.48l9.56,1.15c12.77,1.4,25.57,2.42,38.39,3.27s25.64,1.61,38.47,2.27l19.25.94Q152.52,111.24,162.16,111.63Z"/></svg>