<svg id="Layer_1" data-name="Layer 1" xmlns="http://www.w3.org/2000/svg" xmlns:xlink="http://www.w3.org/1999/xlink" viewBox="0 0 283.46 198.43"><defs><style>.cls-1{fill:#025b55;}.cls-2{clip-path:url(#clip-path);}.cls-3{fill:#fff;}</style><clipPath id="clip-path"><rect class="cls-1" x="15.32" y="53.14" width="254.87" height="92.16"/></clipPath></defs><title>Organised Rides_1</title><rect class="cls-1" x="15.32" y="53.14" width="254.87" height="92.15"/><rect class="cls-1" x="15.32" y="53.14" width="254.87" height="92.16"/><g class="cls-2"><path class="cls-3" d="M285.79,185.33l-.87-.05L4.09,169.83,5.4,129.57l.61-.15c2.15-.52,4.15-.81,6.08-1.09,4.62-.66,9-1.28,14.37-5.16,13.18-9.25,27.75-8,39-5.82,3.6.91,7.34-2.12,10.63-4.79a33.72,33.72,0,0,1,3.88-2.86l1.63-1c3.87-2.28,6.66-3.93,12.6-5.08,4.39-.86,8,0,12.6,1.11a67.17,67.17,0,0,0,18.13,2.33c4,.33,6.24,1.84,8.65,3.44a27.76,27.76,0,0,0,4.31,2.49l5.72-1.19,3.49-1.38,1.7-.52,1.06-.87,2.73-1,2,.26,2.46,1.5,3,.69,3.33.1,3.77-.95,3.64.43,2.82,0,2.55-1.66L179,107l3.77-3.11,3.45-.45,3.73-2.44,1.84-2.61,5.32.45,7.14,0,3.72-2.69,3.56,1.9.85,1,3.23-3.59,2.88-2.16,4.12-2.13L225.29,94l2.82.89L230.87,97l3-.16,6.49-2.36,5.63-1.9,3-1.46,3.26-.53,3.82-3.14L258.61,89,262,92.91l2.66,2.27A12.06,12.06,0,0,0,266.28,97a7.13,7.13,0,0,1,1.93,1.92l3.22,1.14,2.33,3.11,2.74,3.06.21,3.31,2.89,1.4,6.91,5.21ZM5.8,168.26l278.35,15.31.69-66.59-6.17-4.65-3.55-1.7-.24-3.71-2.4-2.69-2.08-2.76-3.21-1.14-.15-.2a8.81,8.81,0,0,0-1.44-1.61,8.81,8.81,0,0,1-2.24-2.26l-2.62-2.21-3.3-3.85-1.19-.76L253,92.11l-3.59.57-2.83,1.41L240.92,96l-6.83,2.44-3.74.21-3-2.28-2.94-.94-2.15-2.19-3,1.53-2.64,2-4.35,4.87-1.87-2.26-2.36-1.25-3.32,2.39-7.75-.05-4.43-.38-1.48,2.09-4.3,2.82-3.36.45-3.6,2.94-2.76,1.52-2.93,1.91-3.45,0-3.38-.4-3.7.92-3.8-.13-3.37-.76L154,109.94l-1.29-.16-2.09.76-1.09.9-1.95.59L144,113.45l-6.3,1.31-.23-.1a27.53,27.53,0,0,1-4.83-2.74c-2.32-1.54-4.33-2.87-7.79-3.16a69.86,69.86,0,0,1-18.46-2.37c-4.39-1.06-7.86-1.89-11.89-1.1-5.66,1.1-8.21,2.6-12.07,4.88l-1.65,1a31.76,31.76,0,0,0-3.66,2.71c-3.6,2.92-7.68,6.22-12,5.13-20.7-4-31,.87-37.65,5.54-5.72,4.11-10.27,4.76-15.09,5.46-1.71.24-3.46.49-5.31.91Z"/></g><rect class="cls-3" x="76.76" y="69.74" width="16.6" height="58.94"/><path class="cls-3" d="M140.11,99c0-17.74-9.66-29.24-27.58-29.24H100v59h13.62C123.19,128.69,140.11,126.06,140.11,99ZM115.78,84.52c7.47,0,8.41,8.87,8.41,15.26,0,5.52-.94,14.55-8.41,14.63Z"/><polygon class="cls-3" points="173.89 114.57 160.61 114.57 160.61 105.44 173.06 105.44 173.06 91.33 160.61 91.33 160.61 83.03 173.89 83.03 173.89 69.74 144.83 69.74 144.83 128.69 173.89 128.69 173.89 114.57"/><path class="cls-3" d="M47.7,112.93c0-2.88-.25-5.76-.33-8.64l.11-.1,8.75,24.5h17.2L61.6,104.19c6.3-2.49,9.11-8.35,9.11-14.81,0-15.49-10-19.64-23.74-19.64h-15v59H47.7Zm0-30.43c4.15-.24,7.38,1.94,7.38,7.08,0,3.81-2.21,7.47-6.42,7.47l-1-.08Z"/><polygon class="cls-3" points="228.68 128.69 244.46 128.69 244.46 84.69 253.59 84.69 253.59 69.74 219.55 69.74 219.55 84.69 228.68 84.69 228.68 128.69"/><rect class="cls-3" x="198.79" y="69.74" width="14.94" height="58.94"/></svg>