<svg id="Layer_1" data-name="Layer 1" xmlns="http://www.w3.org/2000/svg" viewBox="0 0 283.46 198.43"><defs><style>.cls-1,.cls-3{fill:#00524c;}.cls-2{fill:none;}.cls-3{stroke:#00524c;stroke-miterlimit:10;stroke-width:0.62px;}</style></defs><title>Price Match_1</title><path class="cls-1" d="M101.63,122.12,76,159.81l25.37,2.25,12.86,20.87,27.21-40.5.6,0,27.2,40.48,12.85-20.87,25.37-2.25-25.78-37.55"/><path class="cls-1" d="M141.73,15.5A59.46,59.46,0,1,0,201.19,75,59.45,59.45,0,0,0,141.73,15.5Zm0,114A54.59,54.59,0,1,1,196.32,75,54.58,54.58,0,0,1,141.73,129.54Z"/><path class="cls-2" d="M141.73,15.5A59.46,59.46,0,1,0,201.19,75,59.45,59.45,0,0,0,141.73,15.5Zm0,114A54.59,54.59,0,1,1,196.32,75,54.58,54.58,0,0,1,141.73,129.54Z"/><path class="cls-1" d="M137.17,129.31a2.33,2.33,0,0,1,2.37-2.16,2.39,2.39,0,0,1,2.19,2.39,2.18,2.18,0,0,1-2.38,2.16A2.22,2.22,0,0,1,137.17,129.31Z"/><path class="cls-1" d="M132.64,128.72a2.28,2.28,0,0,1,2.54-1.91,2.38,2.38,0,0,1,2,2.5,2.21,2.21,0,0,1-2.56,2A2.27,2.27,0,0,1,132.64,128.72Z"/><path class="cls-1" d="M128.17,127.77a2.24,2.24,0,0,1,2.68-1.66,2.28,2.28,0,1,1-.94,4.46A2.32,2.32,0,0,1,128.17,127.77Z"/><path class="cls-1" d="M123.8,126.46a2.29,2.29,0,0,1,2.81-1.44,2.25,2.25,0,0,1,1.56,2.75,2.31,2.31,0,0,1-2.87,1.61A2.27,2.27,0,0,1,123.8,126.46Z"/><path class="cls-1" d="M119.54,124.8a2.38,2.38,0,0,1,2.95-1.24,2.28,2.28,0,1,1-1.68,4.23A2.2,2.2,0,0,1,119.54,124.8Z"/><path class="cls-1" d="M115.44,122.79a2.4,2.4,0,0,1,3.06-1,2.32,2.32,0,0,1,1,3,2.23,2.23,0,0,1-3.07,1A2.17,2.17,0,0,1,115.44,122.79Z"/><path class="cls-1" d="M111.53,120.41a2.29,2.29,0,0,1,3.91,2.38,2.29,2.29,0,0,1-3.91-2.38Z"/><path class="cls-1" d="M107.85,117.7a2.33,2.33,0,0,1,3.17-.47,2.4,2.4,0,0,1,.51,3.18,2.18,2.18,0,0,1-3.19.5A2.24,2.24,0,0,1,107.85,117.7Z"/><path class="cls-1" d="M104.4,114.71a2.29,2.29,0,0,1,3.18-.19,2.37,2.37,0,0,1,.27,3.18,2.2,2.2,0,0,1-3.24.27A2.28,2.28,0,0,1,104.4,114.71Z"/><path class="cls-1" d="M101.21,111.44a2.26,2.26,0,0,1,3.17.1,2.31,2.31,0,0,1,0,3.17,2.27,2.27,0,0,1-3.28,0A2.3,2.3,0,0,1,101.21,111.44Z"/><path class="cls-1" d="M98.3,107.92a2.29,2.29,0,0,1,2.91,3.52,2.29,2.29,0,1,1-2.91-3.52Z"/><path class="cls-1" d="M95.68,104.18a2.27,2.27,0,0,1,1.7-.31,2.54,2.54,0,0,1,1.42.92,2.27,2.27,0,0,1-.5,3.13,2.3,2.3,0,0,1-3.24-.53,2.09,2.09,0,0,1-.38-1.76A2.28,2.28,0,0,1,95.68,104.18Z"/><path class="cls-1" d="M93.38,100.23a2.29,2.29,0,0,1,1.71-.16,2.41,2.41,0,0,1,1.38,1,2.31,2.31,0,0,1-.79,3.1,2.25,2.25,0,0,1-3.15-.82,2.23,2.23,0,0,1-.28-1.76A2.29,2.29,0,0,1,93.38,100.23Z"/><path class="cls-1" d="M91.4,96.11a2.4,2.4,0,0,1,3,1.09,2.34,2.34,0,0,1-1.07,3,2.22,2.22,0,0,1-3-1.09A2.18,2.18,0,0,1,91.4,96.11Z"/><path class="cls-1" d="M89.83,91.82a2.35,2.35,0,0,1,2.92,1.35,2.38,2.38,0,0,1-1.35,2.94,2.18,2.18,0,0,1-2.91-1.35A2.21,2.21,0,0,1,89.83,91.82Z"/><path class="cls-1" d="M88.63,87.41a2.23,2.23,0,0,1,2.51,3.3,2.24,2.24,0,0,1-1.31,1.11,2.34,2.34,0,0,1-1.76-.15A2.3,2.3,0,0,1,87,90.23,2.25,2.25,0,0,1,88.63,87.41Z"/><path class="cls-1" d="M87.8,82.92a2.27,2.27,0,0,1,2.58,1.83A2.65,2.65,0,0,1,90,86.41a2.28,2.28,0,0,1-3.15.7,2.09,2.09,0,0,1-1-1.51A2.3,2.3,0,0,1,87.8,82.92Z"/><path class="cls-1" d="M87.32,78.38a2.29,2.29,0,0,1,.48,4.54,2.28,2.28,0,1,1-.48-4.54Z"/><path class="cls-1" d="M87.21,73.81a2.37,2.37,0,0,1,2.27,2.24,2.28,2.28,0,1,1-4.55.09A2.21,2.21,0,0,1,87.21,73.81Z"/><path class="cls-1" d="M87.45,69.25a2.39,2.39,0,0,1,2.14,2.42,2.32,2.32,0,0,1-2.38,2.14,2.23,2.23,0,0,1-2.16-2.42A2.17,2.17,0,0,1,87.45,69.25Z"/><path class="cls-1" d="M88.14,64.73a2.35,2.35,0,0,1,1.91,2.59,2.39,2.39,0,0,1-2.6,1.93,2.19,2.19,0,0,1-1.91-2.59A2.22,2.22,0,0,1,88.14,64.73Z"/><path class="cls-1" d="M89.2,60.28A2.31,2.31,0,0,1,90.85,63a2.41,2.41,0,0,1-1,1.37,2.28,2.28,0,0,1-3.16-.64,2.35,2.35,0,0,1,2.54-3.47Z"/><path class="cls-1" d="M90.62,55.94A2.27,2.27,0,0,1,92,58.79a2.55,2.55,0,0,1-1.09,1.3,2.27,2.27,0,0,1-1.71.19,2.24,2.24,0,0,1-1.38-1.1,2.11,2.11,0,0,1-.15-1.79A2.3,2.3,0,0,1,90.62,55.94Z"/><path class="cls-1" d="M92.39,51.73a2.29,2.29,0,0,1-1.77,4.21,2.29,2.29,0,1,1,1.77-4.21Z"/><path class="cls-1" d="M94.5,47.68a2.3,2.3,0,0,1,1,1.36,2.61,2.61,0,0,1-.15,1.69,2.27,2.27,0,0,1-3,1,2.29,2.29,0,0,1-1-3.11,2.07,2.07,0,0,1,1.39-1.15A2.25,2.25,0,0,1,94.5,47.68Z"/><path class="cls-1" d="M96.93,43.82a2.23,2.23,0,0,1,.93,1.44,2.23,2.23,0,0,1-3.36,2.42,2.33,2.33,0,0,1,.7-4.23A2.28,2.28,0,0,1,96.93,43.82Z"/><path class="cls-1" d="M99.68,40.16a2.4,2.4,0,0,1,.43,3.2,2.33,2.33,0,0,1-3.18.46,2.23,2.23,0,0,1-.44-3.21A2.19,2.19,0,0,1,99.68,40.16Z"/><path class="cls-1" d="M102.75,36.78a2.28,2.28,0,0,1-3.07,3.38A2.19,2.19,0,0,1,99.52,37,2.22,2.22,0,0,1,102.75,36.78Z"/><path class="cls-1" d="M106.1,33.67a2.31,2.31,0,0,1-.14,3.19,2.24,2.24,0,0,1-1.62.57,2.27,2.27,0,0,1-2.27-2.28,2.35,2.35,0,0,1,.78-1.61A2.25,2.25,0,0,1,106.1,33.67Z"/><path class="cls-1" d="M109.68,30.84a2.28,2.28,0,0,1-.41,3.15,2.36,2.36,0,0,1-3.17-.32,2.22,2.22,0,0,1,.34-3.25A2.27,2.27,0,0,1,109.68,30.84Z"/><path class="cls-1" d="M113.49,28.31a2.25,2.25,0,0,1-.7,3.08,2.28,2.28,0,1,1-2.52-3.79A2.32,2.32,0,0,1,113.49,28.31Z"/><path class="cls-1" d="M117.49,26.1a2.28,2.28,0,0,1-.95,3,2.24,2.24,0,0,1-3.05-.81,2.29,2.29,0,1,1,4-2.21Z"/><path class="cls-1" d="M121.65,24.23a2.35,2.35,0,0,1-1.18,3A2.28,2.28,0,1,1,118.62,23,2.22,2.22,0,0,1,121.65,24.23Z"/><path class="cls-1" d="M126,22.71a2.36,2.36,0,0,1-.16,1.72,2.28,2.28,0,0,1-1.25,1.17,2.32,2.32,0,0,1-2.9-1.37,2.25,2.25,0,0,1,1.4-2.93,2.28,2.28,0,0,1,1.78.06A2.19,2.19,0,0,1,126,22.71Z"/><path class="cls-1" d="M130.39,21.57A2.29,2.29,0,0,1,126,22.71a2.29,2.29,0,0,1,4.43-1.14Z"/><path class="cls-1" d="M134.9,20.84A2.32,2.32,0,0,1,133,23.43a2.4,2.4,0,0,1-2.63-1.86,2.18,2.18,0,0,1,1.87-2.63A2.25,2.25,0,0,1,134.9,20.84Z"/><path class="cls-1" d="M139.45,20.49a2.27,2.27,0,0,1-2.09,2.38,2.36,2.36,0,0,1-2.46-2A2.22,2.22,0,0,1,137,18.33,2.29,2.29,0,0,1,139.45,20.49Z"/><path class="cls-1" d="M144,20.49a2.29,2.29,0,0,1-4.57,0,2.29,2.29,0,1,1,4.57,0Z"/><path class="cls-1" d="M148.57,20.84a2.36,2.36,0,0,1-2.46,2,2.28,2.28,0,1,1,.38-4.54A2.22,2.22,0,0,1,148.57,20.84Z"/><path class="cls-1" d="M153.08,21.57a2.39,2.39,0,0,1-2.63,1.86,2.32,2.32,0,0,1-1.88-2.59,2.26,2.26,0,0,1,2.64-1.9A2.18,2.18,0,0,1,153.08,21.57Z"/><path class="cls-1" d="M157.51,22.71a2.29,2.29,0,0,1-4.43-1.14,2.29,2.29,0,0,1,4.43,1.14Z"/><path class="cls-1" d="M161.82,24.23a2.32,2.32,0,0,1-2.9,1.37,2.28,2.28,0,0,1-1.25-1.17,2.36,2.36,0,0,1-.16-1.72,2.19,2.19,0,0,1,1.13-1.35,2.28,2.28,0,0,1,1.78-.06A2.25,2.25,0,0,1,161.82,24.23Z"/><path class="cls-1" d="M166,26.11a2.26,2.26,0,0,1-3,1.08,2.35,2.35,0,0,1-1.18-3,2.21,2.21,0,0,1,3-1.19A2.27,2.27,0,0,1,166,26.11Z"/><path class="cls-1" d="M170,28.31a2.24,2.24,0,0,1-3,.81,2.27,2.27,0,0,1-1-3,2.28,2.28,0,1,1,4,2.2Z"/><path class="cls-1" d="M173.79,30.84a2.28,2.28,0,0,1-3.12.55,2.25,2.25,0,0,1-.69-3.08,2.33,2.33,0,0,1,3.22-.71A2.29,2.29,0,0,1,173.79,30.84Z"/><path class="cls-1" d="M177.37,33.67a2.36,2.36,0,0,1-3.17.32A2.28,2.28,0,1,1,177,30.42,2.22,2.22,0,0,1,177.37,33.67Z"/><path class="cls-1" d="M180.72,36.78a2.32,2.32,0,0,1-1.6.65,2.24,2.24,0,0,1-1.61-.57,2.31,2.31,0,0,1-.14-3.19,2.24,2.24,0,0,1,3.25-.12,2.31,2.31,0,0,1,.78,1.6A2.27,2.27,0,0,1,180.72,36.78Z"/><path class="cls-1" d="M183.79,40.16a2.28,2.28,0,1,1-3.07-3.38A2.22,2.22,0,0,1,184,37,2.19,2.19,0,0,1,183.79,40.16Z"/><path class="cls-1" d="M186.54,43.82a2.34,2.34,0,0,1-3.18-.45,2.39,2.39,0,0,1,.43-3.21,2.19,2.19,0,0,1,3.19.45A2.24,2.24,0,0,1,186.54,43.82Z"/><path class="cls-1" d="M189,47.69a2.23,2.23,0,0,1-3.36-2.43,2.23,2.23,0,0,1,.93-1.44A2.29,2.29,0,1,1,189,47.69Z"/><path class="cls-1" d="M191.08,51.74a2.27,2.27,0,0,1-3-1,2.31,2.31,0,0,1-.21-.85,1.94,1.94,0,0,1,.06-.83,2.27,2.27,0,0,1,2.8-1.58,2.43,2.43,0,0,1,.82.41,2.36,2.36,0,0,1,.57.74A2.31,2.31,0,0,1,191.08,51.74Z"/><path class="cls-1" d="M192.85,56a2.29,2.29,0,0,1-1.77-4.21,2.31,2.31,0,0,1,3.08,1.18A2.33,2.33,0,0,1,192.85,56Z"/><path class="cls-1" d="M194.27,60.29a2.27,2.27,0,0,1-1.71-.2,2.49,2.49,0,0,1-1.09-1.29A2.25,2.25,0,0,1,192.85,56a2.3,2.3,0,0,1,3,1.44,2.13,2.13,0,0,1-.15,1.8A2.28,2.28,0,0,1,194.27,60.29Z"/><path class="cls-1" d="M195.33,64.73a2.24,2.24,0,0,1-1.68-.34,2.35,2.35,0,0,1-1-1.37,2.3,2.3,0,0,1,1.65-2.73,2.34,2.34,0,0,1,2.54,3.46A2.32,2.32,0,0,1,195.33,64.73Z"/><path class="cls-1" d="M196,69.25a2.38,2.38,0,0,1-2.6-1.93,2.35,2.35,0,0,1,1.91-2.59,2.23,2.23,0,0,1,2.6,1.93A2.19,2.19,0,0,1,196,69.25Z"/><path class="cls-1" d="M196.26,73.81a2.33,2.33,0,0,1-2.39-2.14A2.41,2.41,0,0,1,196,69.25a2.18,2.18,0,0,1,2.4,2.14A2.23,2.23,0,0,1,196.26,73.81Z"/><path class="cls-1" d="M196.15,78.38A2.27,2.27,0,0,1,194,76.05a2.37,2.37,0,0,1,2.27-2.24,2.22,2.22,0,0,1,2.28,2.34A2.28,2.28,0,0,1,196.15,78.38Z"/><path class="cls-1" d="M195.67,82.92a2.29,2.29,0,0,1,.48-4.54,2.28,2.28,0,1,1-.48,4.54Z"/><path class="cls-1" d="M194.84,87.41a2.26,2.26,0,0,1-1.41-1,2.61,2.61,0,0,1-.34-1.66,2.27,2.27,0,0,1,2.58-1.84,2.3,2.3,0,0,1,1.89,2.69,2,2,0,0,1-1,1.5A2.27,2.27,0,0,1,194.84,87.41Z"/><path class="cls-1" d="M193.63,91.82A2.46,2.46,0,0,1,192.07,89a2.31,2.31,0,0,1,2.77-1.6,2.26,2.26,0,0,1,1.62,2.83,2.34,2.34,0,0,1-1.06,1.43A2.31,2.31,0,0,1,193.63,91.82Z"/><path class="cls-1" d="M192.06,96.11a2.28,2.28,0,0,1,1.57-4.29A2.22,2.22,0,0,1,195,94.76,2.19,2.19,0,0,1,192.06,96.11Z"/><path class="cls-1" d="M190.09,100.23a2.33,2.33,0,0,1-1.07-3,2.39,2.39,0,0,1,3-1.1,2.19,2.19,0,0,1,1.08,3A2.22,2.22,0,0,1,190.09,100.23Z"/><path class="cls-1" d="M187.78,104.18a2.31,2.31,0,0,1-.78-3.09,2.39,2.39,0,0,1,1.38-1,2.26,2.26,0,0,1,2.83,1.53,2.21,2.21,0,0,1-.27,1.77A2.27,2.27,0,0,1,187.78,104.18Z"/><path class="cls-1" d="M185.17,107.92a2.26,2.26,0,0,1-.5-3.13,2.54,2.54,0,0,1,1.42-.92,2.27,2.27,0,0,1,2.69,1.76,2.08,2.08,0,0,1-.38,1.76A2.29,2.29,0,0,1,185.17,107.92Z"/><path class="cls-1" d="M182.25,111.44a2.29,2.29,0,0,1,2.92-3.52,2.29,2.29,0,1,1-2.92,3.52Z"/><path class="cls-1" d="M179.06,114.71a2.3,2.3,0,0,1,0-3.17,2.25,2.25,0,0,1,3.16-.1,2.3,2.3,0,0,1,.09,3.28A2.27,2.27,0,0,1,179.06,114.71Z"/><path class="cls-1" d="M175.61,117.7a2.38,2.38,0,0,1,.27-3.18,2.28,2.28,0,1,1,3,3.45A2.21,2.21,0,0,1,175.61,117.7Z"/><path class="cls-1" d="M171.93,120.41a2.41,2.41,0,0,1,.51-3.18,2.33,2.33,0,0,1,3.17.47,2.24,2.24,0,0,1-.49,3.21A2.18,2.18,0,0,1,171.93,120.41Z"/><path class="cls-1" d="M168,122.79a2.28,2.28,0,0,1,3.9-2.38,2.28,2.28,0,0,1-3.9,2.38Z"/><path class="cls-1" d="M163.92,124.8a2.33,2.33,0,0,1,1.05-3,2.4,2.4,0,0,1,3.06,1,2.17,2.17,0,0,1-1,3A2.23,2.23,0,0,1,163.92,124.8Z"/><path class="cls-1" d="M159.67,126.46a2.28,2.28,0,0,1,1.31-2.9,2.38,2.38,0,0,1,2.94,1.24,2.19,2.19,0,0,1-1.27,3A2.27,2.27,0,0,1,159.67,126.46Z"/><path class="cls-1" d="M155.29,127.77a2.26,2.26,0,0,1,1.56-2.75,2.3,2.3,0,0,1,2.82,1.44,2.27,2.27,0,0,1-1.5,2.92A2.32,2.32,0,0,1,155.29,127.77Z"/><path class="cls-1" d="M150.83,128.72a2.26,2.26,0,0,1,1.78-2.6,2.23,2.23,0,0,1,2.68,1.65,2.28,2.28,0,1,1-4.46,1Z"/><path class="cls-1" d="M146.3,129.31a2.36,2.36,0,0,1,2-2.5,2.28,2.28,0,1,1,.56,4.52A2.2,2.2,0,0,1,146.3,129.31Z"/><path class="cls-1" d="M141.73,129.54a2.39,2.39,0,0,1,2.19-2.39,2.35,2.35,0,0,1,2.38,2.16,2.24,2.24,0,0,1-2.19,2.39A2.18,2.18,0,0,1,141.73,129.54Z"/><path class="cls-1" d="M137.18,15.69a2.28,2.28,0,1,1,4.55-.19,2.28,2.28,0,0,1-4.55.19Z"/><path class="cls-1" d="M132.65,16.18a2.28,2.28,0,1,1,4.53-.49,2.28,2.28,0,0,1-4.53.49Z"/><path class="cls-1" d="M128.19,17.06a2.27,2.27,0,1,1,4.46-.88,2.27,2.27,0,0,1-4.46.88Z"/><path class="cls-1" d="M123.79,18.26a2.28,2.28,0,1,1,4.4-1.2,2.28,2.28,0,0,1-4.4,1.2Z"/><path class="cls-1" d="M119.51,19.81a2.28,2.28,0,1,1,4.28-1.55,2.28,2.28,0,0,1-4.28,1.55Z"/><path class="cls-1" d="M115.35,21.67a2.25,2.25,0,0,1-.1-1.76,2.31,2.31,0,0,1,1.23-1.29,2.24,2.24,0,0,1,3,1.19,2.34,2.34,0,0,1-1.17,3,2.18,2.18,0,0,1-1.7,0A2.28,2.28,0,0,1,115.35,21.67Z"/><path class="cls-1" d="M111.35,23.85a2.28,2.28,0,1,1,3.06.86A2.27,2.27,0,0,1,111.35,23.85Z"/><path class="cls-1" d="M107.53,26.33a2.28,2.28,0,1,1,3.82-2.48,2.28,2.28,0,0,1-3.82,2.48Z"/><path class="cls-1" d="M103.9,29.08a2.28,2.28,0,1,1,3.63-2.75,2.28,2.28,0,0,1-3.63,2.75Z"/><path class="cls-1" d="M100.51,32.12a2.28,2.28,0,1,1,3.39-3,2.28,2.28,0,0,1-3.39,3Z"/><path class="cls-1" d="M97.35,35.4a2.28,2.28,0,1,1,3.16-3.28,2.28,2.28,0,0,1-3.16,3.28Z"/><path class="cls-1" d="M94.45,38.91a2.28,2.28,0,1,1,2.9-3.51,2.28,2.28,0,0,1-2.9,3.51Z"/><path class="cls-1" d="M91.83,42.64a2.28,2.28,0,1,1,2.62-3.73,2.28,2.28,0,0,1-2.62,3.73Z"/><path class="cls-1" d="M89.49,46.55a2.28,2.28,0,1,1,2.34-3.91,2.28,2.28,0,0,1-2.34,3.91Z"/><path class="cls-1" d="M87.48,50.63a2.27,2.27,0,1,1,2-4.08,2.27,2.27,0,0,1-2,4.08Z"/><path class="cls-1" d="M85.77,54.85a2.28,2.28,0,1,1,1.71-4.22,2.28,2.28,0,0,1-1.71,4.22Z"/><path class="cls-1" d="M84.4,59.2a2.28,2.28,0,1,1,1.37-4.35A2.28,2.28,0,0,1,84.4,59.2Z"/><path class="cls-1" d="M83.37,63.63a2.19,2.19,0,0,1-1.46-1,2.3,2.3,0,0,1-.28-1.76A2.22,2.22,0,0,1,84.4,59.2a2.33,2.33,0,0,1,1.66,2.72,2.21,2.21,0,0,1-1,1.38A2.28,2.28,0,0,1,83.37,63.63Z"/><path class="cls-1" d="M82.68,68.14a2.28,2.28,0,1,1,2.54-1.92A2.28,2.28,0,0,1,82.68,68.14Z"/><path class="cls-1" d="M82.33,72.68a2.28,2.28,0,1,1,.35-4.54,2.28,2.28,0,0,1-.35,4.54Z"/><path class="cls-1" d="M82.33,77.23A2.28,2.28,0,1,1,84.55,75,2.27,2.27,0,0,1,82.33,77.23Z"/><path class="cls-1" d="M82.68,81.77a2.28,2.28,0,1,1-.35-4.54,2.28,2.28,0,0,1,.35,4.54Z"/><path class="cls-1" d="M83.37,86.28a2.28,2.28,0,1,1,1.85-2.59A2.28,2.28,0,0,1,83.37,86.28Z"/><path class="cls-1" d="M84.4,90.71A2.22,2.22,0,0,1,81.63,89a2.34,2.34,0,0,1,.28-1.77,2.18,2.18,0,0,1,1.46-1,2.28,2.28,0,0,1,1.69.33,2.21,2.21,0,0,1,1,1.38A2.33,2.33,0,0,1,84.4,90.71Z"/><path class="cls-1" d="M85.77,95.06a2.28,2.28,0,1,1-1.37-4.35,2.28,2.28,0,0,1,1.37,4.35Z"/><path class="cls-1" d="M87.48,99.28a2.28,2.28,0,1,1-1.71-4.22,2.28,2.28,0,0,1,1.71,4.22Z"/><path class="cls-1" d="M89.49,103.36a2.27,2.27,0,1,1-2-4.08,2.27,2.27,0,0,1,2,4.08Z"/><path class="cls-1" d="M91.83,107.27a2.28,2.28,0,1,1-2.34-3.91,2.28,2.28,0,0,1,2.34,3.91Z"/><path class="cls-1" d="M94.45,111a2.28,2.28,0,1,1-2.62-3.72A2.28,2.28,0,0,1,94.45,111Z"/><path class="cls-1" d="M97.35,114.51a2.28,2.28,0,1,1-2.9-3.52,2.28,2.28,0,0,1,2.9,3.52Z"/><path class="cls-1" d="M100.51,117.78a2.27,2.27,0,1,1-3.16-3.27,2.27,2.27,0,0,1,3.16,3.27Z"/><path class="cls-1" d="M103.9,120.83a2.28,2.28,0,1,1-3.39-3,2.28,2.28,0,0,1,3.39,3Z"/><path class="cls-1" d="M107.53,123.58a2.28,2.28,0,1,1-3.63-2.75,2.28,2.28,0,0,1,3.63,2.75Z"/><path class="cls-1" d="M111.35,126.06a2.28,2.28,0,1,1-3.82-2.48,2.28,2.28,0,0,1,3.82,2.48Z"/><path class="cls-1" d="M115.35,128.24a2.28,2.28,0,1,1-.94-3A2.27,2.27,0,0,1,115.35,128.24Z"/><path class="cls-1" d="M119.51,130.1a2.22,2.22,0,0,1-3,1.18,2.28,2.28,0,0,1-1.23-1.29,2.23,2.23,0,0,1,.1-1.75,2.33,2.33,0,0,1,1.29-1.15,2.25,2.25,0,0,1,1.71,0A2.34,2.34,0,0,1,119.51,130.1Z"/><path class="cls-1" d="M123.79,131.65a2.28,2.28,0,1,1-4.28-1.55,2.28,2.28,0,0,1,4.28,1.55Z"/><path class="cls-1" d="M128.19,132.84a2.28,2.28,0,1,1-4.4-1.19,2.28,2.28,0,0,1,4.4,1.19Z"/><path class="cls-1" d="M132.66,133.72a2.28,2.28,0,1,1-4.47-.88,2.28,2.28,0,0,1,4.47.88Z"/><path class="cls-1" d="M137.18,134.22a2.27,2.27,0,1,1-4.52-.5,2.27,2.27,0,0,1,4.52.5Z"/><path class="cls-1" d="M141.73,134.41a2.28,2.28,0,1,1-4.55-.19,2.28,2.28,0,0,1,4.55.19Z"/><path class="cls-1" d="M146.28,134.22a2.28,2.28,0,1,1-4.55.19,2.28,2.28,0,0,1,4.55-.19Z"/><path class="cls-1" d="M150.81,133.72a2.28,2.28,0,1,1-4.53.5,2.28,2.28,0,0,1,4.53-.5Z"/><path class="cls-1" d="M155.28,132.84a2.28,2.28,0,1,1-4.47.88,2.28,2.28,0,0,1,4.47-.88Z"/><path class="cls-1" d="M159.68,131.65a2.28,2.28,0,1,1-4.4,1.19,2.28,2.28,0,0,1,4.4-1.19Z"/><path class="cls-1" d="M164,130.1a2.28,2.28,0,1,1-4.28,1.55A2.28,2.28,0,0,1,164,130.1Z"/><path class="cls-1" d="M168.12,128.24a2.23,2.23,0,0,1,.1,1.75,2.35,2.35,0,0,1-1.23,1.29,2.23,2.23,0,0,1-3-1.18,2.34,2.34,0,0,1,1.16-3,2.23,2.23,0,0,1,1.7,0A2.32,2.32,0,0,1,168.12,128.24Z"/><path class="cls-1" d="M172.12,126.06a2.28,2.28,0,1,1-3.07-.86A2.28,2.28,0,0,1,172.12,126.06Z"/><path class="cls-1" d="M175.93,123.58a2.27,2.27,0,1,1-3.81,2.48,2.27,2.27,0,0,1,3.81-2.48Z"/><path class="cls-1" d="M179.56,120.83a2.28,2.28,0,1,1-3.63,2.75,2.33,2.33,0,0,1,.46-3.16A2.31,2.31,0,0,1,179.56,120.83Z"/><path class="cls-1" d="M183,117.78a2.28,2.28,0,1,1-3.39,3,2.28,2.28,0,0,1,3.39-3Z"/><path class="cls-1" d="M186.12,114.51a2.28,2.28,0,1,1-3.17,3.27,2.28,2.28,0,0,1,3.17-3.27Z"/><path class="cls-1" d="M189,111a2.28,2.28,0,1,1-2.89,3.52A2.28,2.28,0,0,1,189,111Z"/><path class="cls-1" d="M191.63,107.27A2.28,2.28,0,1,1,189,111a2.28,2.28,0,0,1,2.62-3.72Z"/><path class="cls-1" d="M194,103.36a2.28,2.28,0,1,1-2.35,3.91,2.28,2.28,0,0,1,2.35-3.91Z"/><path class="cls-1" d="M196,99.27a2.28,2.28,0,1,1-2,4.09,2.28,2.28,0,0,1,2-4.09Z"/><path class="cls-1" d="M197.7,95.05A2.28,2.28,0,1,1,196,99.27a2.28,2.28,0,0,1,1.71-4.22Z"/><path class="cls-1" d="M199.06,90.71a2.27,2.27,0,1,1-1.36,4.34,2.27,2.27,0,0,1,1.36-4.34Z"/><path class="cls-1" d="M200.1,86.27a2.25,2.25,0,0,1,1.46,1,2.34,2.34,0,0,1,.28,1.77,2.24,2.24,0,0,1-2.78,1.69A2.34,2.34,0,0,1,197.41,88a2.15,2.15,0,0,1,1-1.37A2.33,2.33,0,0,1,200.1,86.27Z"/><path class="cls-1" d="M200.79,81.77a2.28,2.28,0,1,1-2.54,1.92A2.28,2.28,0,0,1,200.79,81.77Z"/><path class="cls-1" d="M201.13,77.23a2.28,2.28,0,1,1-.34,4.54,2.28,2.28,0,0,1,.34-4.54Z"/><path class="cls-1" d="M201.13,72.68A2.28,2.28,0,1,1,198.91,75,2.28,2.28,0,0,1,201.13,72.68Z"/><path class="cls-1" d="M200.79,68.13a2.28,2.28,0,1,1,.34,4.55,2.28,2.28,0,0,1-.34-4.55Z"/><path class="cls-1" d="M200.1,63.63a2.28,2.28,0,1,1-1.85,2.59A2.28,2.28,0,0,1,200.1,63.63Z"/><path class="cls-1" d="M199.06,59.2a2.23,2.23,0,0,1,2.78,1.69,2.3,2.3,0,0,1-.28,1.76,2.25,2.25,0,0,1-1.46,1,2.28,2.28,0,0,1-1.69-.33,2.22,2.22,0,0,1-1-1.38A2.33,2.33,0,0,1,199.06,59.2Z"/><path class="cls-1" d="M197.7,54.85a2.28,2.28,0,1,1,1.36,4.35,2.28,2.28,0,0,1-1.36-4.35Z"/><path class="cls-1" d="M196,50.63a2.28,2.28,0,1,1,1.71,4.22A2.28,2.28,0,0,1,196,50.63Z"/><path class="cls-1" d="M194,46.55a2.27,2.27,0,1,1,2,4.08,2.27,2.27,0,0,1-2-4.08Z"/><path class="cls-1" d="M191.63,42.64A2.28,2.28,0,1,1,194,46.55a2.28,2.28,0,0,1-2.35-3.91Z"/><path class="cls-1" d="M189,38.91a2.28,2.28,0,1,1,2.62,3.73A2.28,2.28,0,0,1,189,38.91Z"/><path class="cls-1" d="M186.11,35.4a2.28,2.28,0,1,1-.26,3.17A2.28,2.28,0,0,1,186.11,35.4Z"/><path class="cls-1" d="M183,32.12a2.28,2.28,0,1,1,3.16,3.28A2.28,2.28,0,0,1,183,32.12Z"/><path class="cls-1" d="M179.56,29.08a2.28,2.28,0,1,1,3.39,3,2.28,2.28,0,0,1-3.39-3Z"/><path class="cls-1" d="M175.93,26.33a2.28,2.28,0,1,1,3.63,2.75,2.28,2.28,0,0,1-3.63-2.75Z"/><path class="cls-1" d="M172.12,23.85a2.27,2.27,0,1,1,3.81,2.48,2.27,2.27,0,0,1-3.81-2.48Z"/><path class="cls-1" d="M168.11,21.67a2.28,2.28,0,1,1,4,2.18,2.28,2.28,0,0,1-4-2.18Z"/><path class="cls-1" d="M164,19.81a2.22,2.22,0,0,1,3-1.19,2.36,2.36,0,0,1,1.24,1.29,2.28,2.28,0,0,1-1.4,2.9,2.18,2.18,0,0,1-1.7,0A2.33,2.33,0,0,1,164,19.81Z"/><path class="cls-1" d="M159.68,18.26A2.28,2.28,0,1,1,164,19.81a2.28,2.28,0,0,1-4.28-1.55Z"/><path class="cls-1" d="M155.28,17.06a2.28,2.28,0,1,1,4.4,1.2,2.28,2.28,0,0,1-4.4-1.2Z"/><path class="cls-1" d="M150.81,16.18a2.28,2.28,0,1,1,4.47.88,2.28,2.28,0,0,1-4.47-.88Z"/><path class="cls-1" d="M146.28,15.69a2.28,2.28,0,1,1,4.53.49,2.28,2.28,0,0,1-4.53-.49Z"/><path class="cls-1" d="M141.73,15.5a2.28,2.28,0,1,1,4.55.19,2.28,2.28,0,0,1-4.55-.19Z"/><path class="cls-1" d="M142.3,19.17a55.22,55.22,0,1,0,55.22,55.21A55.21,55.21,0,0,0,142.3,19.17Zm0,102.61a47.4,47.4,0,1,1,47.4-47.4A47.4,47.4,0,0,1,142.3,121.78Z"/><path class="cls-3" d="M118.08,106.83q.72-4.55,2.22-11.74t3.92-17.54h-5V66.1h7.39q3.53-14.77,9.35-21.88t14.42-7.11a21.79,21.79,0,0,1,2.37.15c.9.1,1.92.24,3,.43l3.77,12.66a29.92,29.92,0,0,0-3.19-.58,22.18,22.18,0,0,0-2.75-.19,8.67,8.67,0,0,0-7.18,3.4q-2.67,3.42-5.29,13.12h7.64V77.55H138.27L138,78.76q-1.85,8-3.1,13.14a3.43,3.43,0,0,0,.44-.05c1.16-.1,1.9-.14,2.22-.14a35.59,35.59,0,0,1,7.71,1.18,35,35,0,0,0,7.27,1.18,14.14,14.14,0,0,0,3.4-.43,17.29,17.29,0,0,0,3.6-1.35v12.8a24.38,24.38,0,0,1-4.47,1.4,23,23,0,0,1-4.71.48,53.14,53.14,0,0,1-10.14-1.4,54,54,0,0,0-10-1.4,25.3,25.3,0,0,0-5.46.63A53.7,53.7,0,0,0,118.08,106.83Z"/></svg>