<svg id="Layer_1" data-name="Layer 1" xmlns="http://www.w3.org/2000/svg" viewBox="0 0 283.46 198.43"><defs><style>.cls-1{fill:#025b55;}.cls-2{fill:#fff;}</style></defs><title>Ride-to-Work</title><polygon class="cls-1" points="266.6 71.71 257.73 71.71 25.73 71.71 17.54 71.71 15.64 71.71 15.64 126.72 16.86 126.72 25.73 126.72 257.73 126.72 267.82 126.72 267.82 71.71 266.6 71.71"/><path class="cls-2" d="M25.81,81.89H38.34c7.71,0,11.62,3.45,11.62,10.2,0,4.06-1.78,6.7-5.33,7.76,3.2.71,4.16,3.35,5.13,8.37l1.62,8.32H41.08l-1-8.22c-.51-4.16-.92-5.93-3.55-5.93-.21,0-.46,0-.72,0v14.1h-10ZM36.92,96.6c2.28,0,3.65-1.52,3.65-4.11,0-2.79-1.26-4-3.85-4H35.8V96.6Z"/><rect class="cls-2" x="53.86" y="81.89" width="10.1" height="34.65"/><path class="cls-2" d="M68.68,81.89H81.16c9.54,0,15.12,6.44,15.12,17.3s-5.58,17.35-15.12,17.35H68.68Zm10,27h2.18c3.15,0,5.08-3.45,5.08-9.69s-1.88-9.79-5.18-9.79H78.67Z"/><path class="cls-2" d="M123.68,81.89h10.09l3.1,13.75a55.19,55.19,0,0,1,1,6.75c.31-2.54.81-5.18,1.42-7.92l2.84-12.58h8.32L153.41,95c.35,1.62.76,4.11,1.21,7.36a61.63,61.63,0,0,1,1.12-7l2.94-13.45h9.79l-8.77,34.65h-9.64L147,102.69a60.11,60.11,0,0,1-1-6.44c-.3,3.19-.56,5.27-.76,6.29l-2.89,14h-9.64Z"/><path class="cls-2" d="M183.24,81.33c8.72,0,14.91,6.8,14.91,17.91s-6.24,17.91-14.91,17.91-14.92-6.85-14.92-17.91,6.19-17.91,14.92-17.91m0,28c2.94,0,4.56-3.4,4.56-10.1s-1.62-10.15-4.56-10.15-4.57,3.45-4.57,10.15,1.62,10.1,4.57,10.1"/><path class="cls-2" d="M201.35,81.89h12.53c7.71,0,11.62,3.45,11.62,10.2,0,4.06-1.78,6.7-5.33,7.76,3.19.71,4.16,3.35,5.12,8.37l1.62,8.32H216.62l-1-8.22c-.5-4.16-.91-5.93-3.55-5.93-.2,0-.46,0-.71,0v14.1h-10ZM212.46,96.6c2.28,0,3.65-1.52,3.65-4.11,0-2.79-1.27-4-3.85-4h-.92V96.6Z"/><polygon class="cls-2" points="229.4 81.89 239.34 81.89 239.34 95.79 246.45 81.89 257.56 81.89 248.73 97.26 257.35 116.54 246.45 116.54 239.34 99.55 239.34 116.54 229.4 116.54 229.4 81.89"/><polygon class="cls-2" points="129.88 105.87 133.53 99.21 129.88 92.56 108.56 92.56 108.56 89.4 120.12 89.4 120.12 81.89 99.47 81.89 99.47 109.03 99.47 116.54 109.46 116.54 120.12 116.54 120.12 109.03 108.56 109.03 108.56 105.87 129.88 105.87"/><polygon class="cls-1" points="114.78 96.68 112.8 96.68 112.8 94.63 119.45 94.63 119.45 96.68 117.46 96.68 117.46 103.81 114.78 103.81 114.78 96.68"/><path class="cls-1" d="M124.05,94.48c2.31,0,4,1.8,4,4.74s-1.66,4.75-4,4.75-4-1.81-4-4.75,1.64-4.74,4-4.74m0,7.42c.78,0,1.21-.9,1.21-2.68s-.43-2.68-1.21-2.68-1.21.91-1.21,2.68.43,2.68,1.21,2.68"/></svg>