<svg id="Layer_1" data-name="Layer 1" xmlns="http://www.w3.org/2000/svg" viewBox="0 0 283.46 198.43"><defs><style>.cls-1{fill:#005350;}</style></defs><title>Tax Free Bikes_1</title><path class="cls-1" d="M256.16,110.12A45.49,45.49,0,0,0,197.8,83L183.5,57.25l7.72-17.57,0,0,1.95-4.43H207a1.06,1.06,0,0,0,1-1.08c0-.86.09-2.43,0-5.25-.13-7.65-29.26-2.19-33.25-1.53-2.53.42-4.86,2.65-5,6.44,0,.74.2,1.42.94,1.42h13.85L176.83,53l-.13.13-.23.52H112.28l6-13.66a4,4,0,0,0,.31-1.52,3.79,3.79,0,0,0-3.79-3.79h-36a13.28,13.28,0,0,0,0,26.56H92V53.63H78.7a5.7,5.7,0,0,1,0-11.39H109L91.4,82.64a46.65,46.65,0,1,0,31,52.66,36.91,36.91,0,0,1-1.57,4.38c-2,4.57-6.47,4.64-9.71,2.45A38.09,38.09,0,1,1,88.37,89.59L76,126.88l4.27.35,15-34.61c.15.09.29.19.44.27a8.19,8.19,0,0,1,5.14-5.74c-.84-.51-1.65-1-2.53-1.51l9-20.63,13,21.33a8.2,8.2,0,0,1,7-3.13l-13.45-22h59.21L164.43,81a7.16,7.16,0,0,1,7.89.9l7.15-16.25,9.92,17.86c6.78-1.89,12.13,7.5,7,12.5l13.11,23.59,1.29,2.33H192.67a8.26,8.26,0,0,1-.63,7.59h25.15a3.4,3.4,0,0,0,.45,0h.09a2.33,2.33,0,0,0,.38-.08h0a3.79,3.79,0,0,0,2.82-3.66,3.85,3.85,0,0,0-.47-1.85l-19-34.17a37.93,37.93,0,1,1-25.23,43.92c-1.47.23-3,.45-4.43.6-1,.1-2.07.15-3.11.19a45.5,45.5,0,1,0,87.4-24.29Z"/><path class="cls-1" d="M135.5,120l-2.58.29.56,5,2.58-.29a3.35,3.35,0,0,0,2.14-.87,2.33,2.33,0,0,0,.51-2,2.29,2.29,0,0,0-1-1.76A3.28,3.28,0,0,0,135.5,120Z"/><polygon class="cls-1" points="138.68 93.85 136.27 102.36 142.59 101.65 138.68 93.85"/><path class="cls-1" d="M202.09,72.12,79.25,85.93l7.45,66.28L209.54,138.4ZM157.6,86.22l5.81,5.7,4.44-6.85,6.7-.75-7.4,11.21,10.59,10.11-6.89.77-6.52-6.35-4.92,7.64-6.67.75,7.78-12.11L150.86,87Zm-16.3,1.84L152,108.52l-5.68.64-2-4-9.23,1-1.25,4.35-5.7.64,6.93-22.45Zm-33.2,3.73,19.81-2.23.44,4-7.08.79,2,17.43-5.64.64-2-17.43-7.09.8Zm9.56,48.06-5.35.6-2.41-21.4,13.85-1.56.44,4-8.49,1,.52,4.64,8-.9.45,4-8,.9Zm24.48-2.75-3.41-5.86a4.6,4.6,0,0,0-1.73-1.85,4.37,4.37,0,0,0-2.45-.29l-.32.05-.31.06,1,8.7-5.37.6-2.4-21.4,7.91-.89c2.91-.33,5.11-.06,6.61.79a5.45,5.45,0,0,1,2.61,4.46,5,5,0,0,1-.58,3.14,6.92,6.92,0,0,1-2.57,2.45,3.79,3.79,0,0,1,1.53.81,6.5,6.5,0,0,1,1.31,1.6l4.23,6.95Zm7.73-.87-2.41-21.41,14.31-1.61.44,4-9,1,.49,4.36,8.55-1,.45,4-8.55,1,.57,5.11,9.21-1,.45,4Zm18-2-2.41-21.41,14.31-1.61.44,4-8.95,1,.49,4.36,8.56-1,.44,4-8.55,1,.57,5.11,9.22-1,.45,4Z"/></svg>