<svg id="Layer_1" data-name="Layer 1" xmlns="http://www.w3.org/2000/svg" viewBox="0 0 283.46 198.43"><defs><style>.cls-1{fill:#025b55;}</style></defs><title>Trade In</title><path class="cls-1" d="M190.61,88.44A30.41,30.41,0,0,0,181,90l-8.59-19.93.05-.13,1.73-4.57,5.53,1.12a2.65,2.65,0,0,0,.56.05,2.85,2.85,0,0,0,1.78-.63,2.73,2.73,0,0,0,.77-1l-23.95-9.2h-4.55a2.81,2.81,0,0,0-.56,5.56l14.33,2.89-2.16,5.8H111.21L113.69,62a6.07,6.07,0,0,1,5.56-4.27l.27,0h11.25a3.16,3.16,0,1,0,0-6.31H119.52a3.12,3.12,0,0,0-1,.18,12.27,12.27,0,0,0-10.68,8.57l-8.9,28.73a30.14,30.14,0,0,0-6.08-.61,30.59,30.59,0,0,0-13.33,58.13l-1.25-7.89A24.46,24.46,0,0,1,92.84,94.45a27.77,27.77,0,0,1,4.28.35L89.94,118a3.08,3.08,0,0,0-.15.89,3,3,0,0,0,3,3,3,3,0,0,0,2.92-2.15L103,96.61a24.46,24.46,0,0,1,7.84,39l6.07,2.33a30.57,30.57,0,0,0-12.08-47.15l2.44-7.87L143.42,123a6.08,6.08,0,0,0,4.54,2h3.94l8.58-.66a30.62,30.62,0,0,0,30.13,25.25c.91,0,1.8-.06,2.69-.14a44.07,44.07,0,0,0,2.53-6.32A24.7,24.7,0,0,1,166.39,124l24-1.86a2.88,2.88,0,0,0,.88-.19,3,3,0,0,0,1.9-2.46s0-.08,0-.13,0-.2,0-.3l0-.35s0-.11,0-.17A3.8,3.8,0,0,0,193,118l-9.7-22.51a24.47,24.47,0,0,1,7.29-1.11,24.69,24.69,0,0,1,20.33,38.75,68.94,68.94,0,0,1-.11,8.91,30.58,30.58,0,0,0-20.22-53.55Zm-43,30.17L109.33,76.08h54.28Zm12.36-.35-5.74.43,15-40.19,6.09,14A30.58,30.58,0,0,0,160,118.26Zm25.66-1.92L166,117.82A24.71,24.71,0,0,1,177.72,98ZM83.71,132,132,150.58l-12.26,9.93a68.23,68.23,0,0,0,17.27,11,56.64,56.64,0,0,0,22.44,4.83,49.83,49.83,0,0,0,6.78-.46,43.31,43.31,0,0,0,26.53-14.12c7-7.91,10.82-18.68,11.65-29.74.84,11-1.21,22.79-7.58,32.76s-16.67,17.48-28.35,21a62.25,62.25,0,0,1-18,2.57,72.29,72.29,0,0,1-18.38-2.42,87.41,87.41,0,0,1-27.64-13.07L91.8,183.16ZM204.63,66.4,156.3,47.84l12.26-9.92a67.8,67.8,0,0,0-17.26-11,56.56,56.56,0,0,0-22.45-4.84,48.29,48.29,0,0,0-6.78.47A43.27,43.27,0,0,0,95.54,36.65c-7,7.91-10.81,18.68-11.65,29.75-.83-11,1.22-22.8,7.58-32.76s16.67-17.49,28.35-21a62.25,62.25,0,0,1,18-2.57,72.74,72.74,0,0,1,18.38,2.42A87.43,87.43,0,0,1,183.8,25.59l12.74-10.32Z"/></svg>