<svg id="Layer_1" data-name="Layer 1" xmlns="http://www.w3.org/2000/svg" viewBox="0 0 283.46 198.43"><defs><style>.cls-1{fill:#fff;}.cls-2{fill:#025b55;}</style></defs><title>Workmanship Guarantee</title><path class="cls-1" d="M168.18,105.65a20.56,20.56,0,1,1,15.75,24.45,20.57,20.57,0,0,1-15.75-24.45"/><path class="cls-2" d="M207.29,50.94c-.22.12-.33.35-.26.75-.48-.17-.13-1.13.26-.75"/><path class="cls-2" d="M222,58.51c.1-.28.78-.11.63.26-.3.3-.34-.2-.63-.26"/><path class="cls-2" d="M219.83,64.42c.39-.06.4.27.37.63-.22-.12-.43-.24-.37-.63"/><path class="cls-2" d="M220.71,65.18c.24-.39.54.19.88.12a.68.68,0,0,0-.13.88c-.11.06-.23.11-.25.25-.25-.05-.71-1,0-.88,0-.26-.34-.25-.5-.37"/><path class="cls-2" d="M226.49,65.31c.29,0,.12.55.37.63-.18.42-.3-.26-.62-.12.06-.19.18-.32.25-.51"/><path class="cls-2" d="M225,66.57c0,.35-.22.53-.63.5-.15-.54.36-.75.63-.5"/><path class="cls-2" d="M220.45,66.56c.48.17.29.27.38.88-.45,0-.57-.66-.38-.88"/><path class="cls-2" d="M224.85,68.08c.19.6-.58.26-.51.75-.18-.11-.39-.19-.37-.5a1.94,1.94,0,0,1,.88-.25"/><path class="cls-2" d="M227.61,68.46a4.6,4.6,0,0,1,.75,1.76,1.1,1.1,0,0,0-1.5.5c0,.59.37.88.37,1.51-.5-.3-1.4-.2-1.89-.51.51-.35.25-.69.38-1.38,1.63.37,1.07-1.45,1.89-1.88"/><path class="cls-2" d="M222.83,70.71c.24.06.32.27.63.26-.37.5-.38,1.37-1,1.63-.07-.56-.4-.85-.37-1.51.49-.06.87.4.75-.38"/><path class="cls-2" d="M218.05,71.46c.39,0,.26.41.38.63-.41,0-.67-.35-.38-.63"/><path class="cls-2" d="M219.05,74c.48.16.55.71.88,1-.45.43-.77,0-1.26-.13,0-.21,0-.42,0-.63s.34-.07.37-.25"/><path class="cls-2" d="M224.46,75c-.27.63-.54.89-.38,1.38-.6,0-.6-.57-.75-1,.43-.06.42-.57,1.13-.37"/><path class="cls-2" d="M222.81,79.14c-.05.31-.43.57-.63.37.12-.22.24-.43.63-.37"/><path class="cls-2" d="M222.94,79.64c.48,0,0,1.07-.38,1,0-.45.31-.61.38-1"/><path class="cls-2" d="M226.71,79.65c.47.09.15.68-.25.63-.11-.41.11-.48.25-.63"/><path class="cls-2" d="M222.3,83c-.05.58-.25.92.25,1.13,0,.35-.38.74-.63.51.12-.5.26-1.2-.25-1.39,0-.27.32-.27.63-.25"/><path class="cls-2" d="M188.68,165.18c0,.39-.27.57-.38.88-.16-.13-.46-.12-.63-.25a1.4,1.4,0,0,1,1-.63"/><path class="cls-2" d="M183.13,176c-.42.82-1.3,1.8-.77,3.14,1.23.46,1.86-.72,2.65-1.12-.21-.41,0-.48,0-1-1,.06-.87-1.05-1.88-1m5-2.38c0,.58.92.39.88-.12-.34,0-.72,0-.88.12m1.51-1.12a1.73,1.73,0,0,0,1.89.38c.32-1.53-2.11-2.44-1.89-.38m-101.46-.6a1.38,1.38,0,0,0,1.26-.38c-.07,0-.14-.1,0-.12-.08-.47-.43-.66-.88-.76,0,.5-.43.66-.38,1.26m106.49-.27c.57-.08,1.62.18,1.89-.13-.86,0-.41-.49-1.13-.62.55-.57-.63-1.31-1.26-1.52,0,.73.46,1.43.5,2.27m-108-5c0-.39.34-.42.26-.87-.41.15-.1-.41-.5-.26.47.44-.27.65.24,1.13m-5.27-.76h.37c0-.23.13-.63-.25-.51,0,.18-.18.24-.12.51m.25-1.51c0-.33-.26-.32-.5-.38-.13.42.17.41.5.38m-1-2.26c-.26-.12-.57.32-.25.37a.33.33,0,0,1,.37-.25c0-.31,0-.61-.24-.63-.26.26,0,.34.12.51m-1.51-1.14c.6,0,.5.27.25.5.39,0,.86,0,.89-.37-.55,0-.7-.1-.51-.51-.39-.06-.51.16-.63.38M206,159.06c-1.36-1.43-3.32.6-2.52,2.51,1.62.92,2.71-1.22,2.52-2.51M73.28,157.51c0-.33-.17-.41-.5-.38,0,.33.17.42.5.38m134.65-1.09a3.06,3.06,0,0,0,2-1,9.52,9.52,0,0,0-2.26-.13c-.07.53.21.7.24,1.13m-134.51-2.3c0,.51.5.59.87.75-.21-.37,0-.63-.12-.88-.31,0-.6,0-.75.13m-4,.49c0-.24.49-.1.38-.5-.17,0-.24-.18-.5-.13s-.2.62.12.63m6-.24c0-.39-.11-.56-.51-.5,0,.39.11.56.51.5m-11.68-8.45v.51c.31,0,.81-.44.51-.63,0,.19-.31.11-.51.12m4.91-1.87c-.25-1.49-3.13-.33-3.15.75.51-.33.54.88.88,1.13.92-.31,2.45-.82,2.27-1.88m159.48-27.44c0-.14.14-.19.25-.25,0-.44,0-.65-.12-.75-.07.42-.24.73-.13,1m.75-.75c.08.07.6.29.63,0-.24,0-.08-.42-.37-.38,0,.25-.17.25-.26.38m.51-1.76c-.13.38.28.23.5.25V114a.68.68,0,0,0-.5.12m-.13,1c0,.21.44-.17.38.37.51-.15.66-.67,1.13-.87.06.71-.34.57-.38,1.38.48-.18,0,.56.5.38a1.62,1.62,0,0,0,.51-.88,2.13,2.13,0,0,1-.5-.38c-.13-.74.53-1,.63-1.88h-.38a2.73,2.73,0,0,1-1.89,1.89m.92-16c.16-.47.79-.46.75-1.13-.95.51-2.55.3-3.64,1.25.29.19.19.31.12.63.76-.68,1.37,0,1.89-.75.06.4-.23.44-.13.88.44-.06.23-.78.63-.88.09.29.38.38.63.5-.05-.21.18-.32,0-.37,0,.19-.21,0-.25-.13M232,95.63a.77.77,0,0,0-.62-.13c-.22.56.66.45.62.13m-2.38,0c-.1.38.21.37.12.76-.1,0-.25,0-.25.12.78,0,1.08-.52,1.26-1.13-.63.16-.52.81-1.13.25m1.13-1c-.07.43.84.53.88.13-.17,0-.11-.23-.25-.26,0,.27-.45.06-.63.13M227.44,93c0-.09,0-.24.12-.25s.24.18.5.13c.11-.76-1.1-.17-.62.12m-.38-1.38c.18-.45,1-.29,1.38-.5-.24,0-.24-.17-.37-.25-.38.17-1.27.34-1,.75M229.7,90c.15,0,.2.14.26.25a1.12,1.12,0,0,0,.75-.5c-.49.15-.69-.13-1,.25m0-2c.42.37.94.75.88,1.26,1.07-.57-.29-2.65-.88-1.26m-1.26-1.38v.37c.52-.06.86.47,1.26.13,0-.56-.78-.82-1.26-.5m-1.37-3.4a.37.37,0,0,1,.25-.25.67.67,0,0,0-.63-.63.48.48,0,0,0,.38.88m.76-4.27c0,.23.14.27.13.5.32.09.59-.48.38-.5-.09.37-.27-.12-.51,0m-9.39-18.13c.42.09.46-.21.51-.5-.24,0-.28-.14-.51-.13v.63m2.77-2.51c-.31-.09-.51.55-.75.13.16-.07.76-.31.38-.51-.19.19-.57.19-.51.63a.55.55,0,0,0,.88-.25m-2.38-1.13c.16.41,1.37,1.25,1.51.5-.4.06-.52-.16-.63-.38.38-.1.64,0,.75-.12a3,3,0,0,0-1.63,0m-1.51,1c-.15-.7.36-.73.38-1.26h-.38c-.05.36-.59,1,0,1.26m2.26-1.51c0-.37.93.18.76-.37-.16.14-1.2,0-.76.37m-.75.38c.15-.35.07-.8-.5-.76.11.31.11.73.5.76m-2-.76c-.34.07-.64-.52-.88-.13.24.13.72.66.88.13m2.9-2.51a.59.59,0,0,0,.12.38c.33,0,.41-.17.38-.5a.73.73,0,0,0-.5.12m-3.14-1.39c.16,1,.39,2.67-1,2.51.5.22.82.61,1.51.64,0-.5-.45-.47-.37-1,1.33-.26,2.42,1.39,3.27,0-.63-.21-.41.43-.89.37-.15-.19-.4-.49-.12-.75-.29-.35-.76,0-.75-.76.33.36.25-.76,0-.75-.51.43-.54-.49-1.26-.51,0,.51,0,.29-.37.25m-1.76-1.51c0-.31-.19-.39-.38-.5-.35.3.13.8.38.5m-2.26.12c.57-.34.61.32,1.25.25-.26-.35-.54-.33-.5-.75-.24.39-.54-.2-.88-.13a.81.81,0,0,0,.13.63m2-2.38c-.21.07,0,.59-.25.63s-.25-.26-.5-.26c-.11.27-.52.49-.26.75.6-.11.58-.28,1.26-.12-.4-.61.39-.44.26-1.13-.24,0-.28.14-.51.13m-1-.63c.26.07.24.37.5.12a.26.26,0,1,0-.5-.12m-3.64-1c-.36-.11-.52-.4-1-.38.08.3.72.69,1,.38m3.13,1.77c-.23-.48-.41-2,0-1.76.06-.4-.11-.56-.5-.51s.22.38-.13.51h-.63c-.15-.27-.15-.69-.5-.76.11.4-.33.26-.38.5.81-.09.56,1.27.12,1.38.46.12,1.36.7,1.39,0a.68.68,0,0,0,.62.63m-4.14-2.78c.41-.74.42.53,1.13.26,0-.67-.57-.78-1.13-.88.17.31-.37.52,0,.62m2.39-.24c.26-.07.16-.81-.12-.76-.11.09-.34.87.12.76m-5.27-4c0,.5.51.5.75.76,0-.34,0-.72-.12-.88a.84.84,0,0,0-.63.12m-.62-3c0,.09-.11.14-.25.12,0,.59.71.54,1,.88,0-.14.14-.19.25-.25-.15-.44-.77-1.06-1.26-.76h.26m-7.79-4.68c0,.59.53.35.76.51-.16-.42.49-.66.12-.88-.24.38-.59.28-.88.37m2.77-2.38c-.23-.57.5-.17.38-.62a2.41,2.41,0,0,0-.38,0c0,.36-.5.46,0,.62m-6.28-1.64c.45.79-.07,1.84.62,2.13,0-.24-.14-.27-.12-.5,1.07.23.66-1.18.63-1.76a1.2,1.2,0,0,0-1.13.13m-.75-.76c.52,0,.39-.7,1-.63,0,.25-.35.16-.26.5.66.17.75-.25,1.26-.24.12-1.71-2.54-2.54-2,.37M228.61,74.5a1,1,0,0,0,.37.75c.36-.1.72-.2.63-.75h-1M214.45,53.22c-.39-.31.27-.89-.38-.88.08.71-.5.75-.5,1.38.39-.25.47-.54.88-.5M201.8,32.07c.35.34,1,1,1.5.76.29-1.21-1.21-1.91-1.5-.76m-8.54-8.32a1.42,1.42,0,0,1-1.63.25c-.48,2.19.9,2.53,1.5,3.65a3.94,3.94,0,0,0,.38-3.39c2.51,1.1,4.84,3.46,7.16,5.17.15.27.13.7.37.88s.55.12.88.12a104.77,104.77,0,0,1,11.29,12,60.92,60.92,0,0,1,9,14.23c-.63.08-.66.35-1-.13,0,.69.38.76.12,1.38.15,0,.67-.39,1-.12-.17.59-1.08.43-1.26,1,.2,0,.48-.06.5.13a3.79,3.79,0,0,1-2.26,0,1.31,1.31,0,0,0,.88.63c-.6.59.6,1.19-.13,2.13.21.42.32.94.75,1.14-.16.48-.72-.3-1,.37,0,.43.94.28.5.76s-.38-.15-.5-.38c-.26,0-.68.76-.13.75-.74.19-.8-.85-1-1.26-1.72-3.51-4.2-7.67-6-10.82-.1-.66.6.28.5-.38s-.39.35-.88.13a25.68,25.68,0,0,1-2.13-3.53c.16-.56.66-.76.88-1.25-.2-.46-.51-.08-1-.13.14.41-.12.94,0,1.51-.56-.7-1.91-1.81-1.63-2.52-.16-.39-.48.18-.63-.13,0-.59-.85-.54-.5-1.13-1.38-.84-2.19-2.25-3.26-3.4a81.58,81.58,0,0,0-10.54-9.45c.25-.26.25-.12,0-.38s-.11.29-.5,0c-13.94-10.15-30.92-18.23-55.41-17.22-27.82,1.14-50,15.62-63.82,33.93a84.83,84.83,0,0,0-7,91.26c-.57.39,0,1.33-.75,1.38-.36,1.5,1.33,1.82,2.26,1.26.41.72.9,1.36,1.25,2.14-.44.23-1.2.68-.88,1.26.86.21.77.34,1.76,0a53.06,53.06,0,0,0,3.51,4.91c-.56.45-1.88.13-2.14.88.4,1.07,2.31,1.82,3.26.89,13.76,16.1,33.81,30.58,61.79,31.94a84.63,84.63,0,0,0,46-10.59c.17.21.49.27.38.76a1.34,1.34,0,0,0,1.13-1.63A1.71,1.71,0,0,1,187,173c.47-.24.8-.62,1.26-.87-.44-.2-.35-.91-.75-1.14.85-.48,2-1.92,2.89-1.5.24-.16-.29-.26,0-.63,16-11.39,28.28-27.17,33.8-49.21a16.75,16.75,0,0,1,1.27-4.27c-.19-2.32.82-5.54.9-8.42.56.22.44.59,1.13.5a2.1,2.1,0,0,0-.88-1,2.41,2.41,0,0,1,.38-2c.71,0,.43.68.76.88,1.54-.51,1.73.88,2.63,1.39a.6.6,0,0,0-.37-.89c.71-.52.19-1.51.38-2.51-1.12,0-.9,1.75-2,1.38-.23-.33.29-.38-.12-.75s-.94.2-1.26-.26c.24-.56,1.09-.51,1-1.38-.4-.23-1.16.23-1.38.25-.15-1,.39-.59.88-1-.1-.54,0-1-.75-1.13-.18-1.78,0-5.37-.36-7.92-.07-.33,0-.45.38-.38-.83-1.18-.52-3.87-1-5,0-.42.64-.28.76-.62s-.6-.41-.88-.63c-.21-1.13-.4-2.28-.62-3.4-.06-.52.32.1.5-.25-.06-.4-.37-.55-.37-1,.36.09,1.11.21.62.76a4.48,4.48,0,0,1,1.77-1.26c.24-1.58-.44-2.15-.37-3.39-.27-.06-.24.18-.25.38-.9-.68-.27-2.45.13-3.27.44.1.14.44,0,.63,1.38.45,1.19-1.74.38-2.39.14-.66,1-.62,1.26-1.13.56,1.4.91,3,1.37,4.53.24.44-.09.41-.25.75,0,.38.38.46.63.63A104.18,104.18,0,0,1,233,93.49c1.8,32.34-12.17,56.88-29.46,73.11-.47-.73-.57-1.84-1.5-1.77s-1.57,2.67-.76,3.65a46.11,46.11,0,0,1-6.05,4.76c-.69-.78-1.24-1.69-2.76-1.64-.73,1.19.46,2.29,1,3a112.6,112.6,0,0,1-12.09,7c.17-.85.42-1.69-.24-2.27-1,.31-1.09,1.52-1,2.89-9.53,4-20.26,7.68-32.58,8.23-24.81,1.1-45.43-6.68-59.93-17.61.76-.55-.29-.53,0-1.13-.47-.39-.52.5-1.25.25,0-.15.23-.11.37-.13-1.6-.56-3-2.2-4.52-3.27a2,2,0,0,1,.51-.76,1.21,1.21,0,0,1-.75-.38c-.35.19.56.57.12.88a49.44,49.44,0,0,1-4.52-4c0-.29.36-.14.38-.38-.08-.42-.42.56-.5.13.07-1.36,1.7.16,1.88-.88.28,0,.28.32.25.63.25,0,.17-.34.51-.25.3-.35-.83-.34-.63-1-.54.76-1.18.23-2.14.13.18.24.65.18.88.38-.32.23-.81-.07-1.13.62a84.37,84.37,0,0,1-9.66-11.21c0-.3.23-.27.13-.63a1.87,1.87,0,0,0-1.13-.75c-4.68-7.22-8.95-14.84-11.64-24a4.38,4.38,0,0,0,1.76-.25c.29-.09,0-.71.13-1,.66.42.7,0,.88-.62a7.89,7.89,0,0,0-2.76.12c-.47.25.1,1-.39,1A94.4,94.4,0,0,1,50.8,89.82C53.1,66.73,63.2,48.5,77.32,34.44A89.63,89.63,0,0,1,133,8.28c23.87-2.36,43.89,4.94,58.93,14.59.16.5-.41.25-.25.75.23,0,.8-.26.5-.37.3-.25.67.5,1.13.5"/><path class="cls-2" d="M71.06,138.52c-.79-.12-.61.74-1,1-.86-.44-1.2-1.57-2.26-.76a83.92,83.92,0,0,1-9.71-42.52c1.17-24,10.84-42.79,24.51-56.39a83.12,83.12,0,0,1,65.3-24.13c19,1.34,33.35,8.51,45.48,17.58a8.79,8.79,0,0,0,.75,2.51c.72-.24,0-1.14,0-1.76a3,3,0,0,1,1.63,3.15.89.89,0,0,1,.75,0c.13-.37-.28-.22-.5-.25.1-.41.81-.19.88-.63a79.33,79.33,0,0,1,8.53,8.57c-.93.51-1.08.06-1.88.12.11-.31.88-.34,1.13-.12-.92-.89-1.51.53-2.14.75.46.23.74.67,1.38,1,.23-.19.84,0,.63-.63.32,0,.2.47.38.63.54-.13.61-.72.88-1.13a21.25,21.25,0,0,1,3.13,3.9,2.26,2.26,0,0,1-1.76.76c-.42,0,.08-.82-.5-.89-.24.36-.1,1.08-.76,1-.27-.43-.5-.8,0-.76-.32-.56-.33,0-.76-.25-.22-.26.25-.58.51-.75a11.1,11.1,0,0,0-.76-1c-.67-.3-.41.22-.88.37a15.33,15.33,0,0,0-1.88-2.14,1.26,1.26,0,0,0-.37-1.63c.31-.44.48-.25.63-.76s-.74-.18-.75-.63a2.11,2.11,0,0,0,.25-1c-.76-.14-1.24-.84-2.26-.38-.45.5.75.18.5.88-.31.09-.34-.07-.76-.13.07.23.85.83,1,1.39a4.12,4.12,0,0,1-1.63-1.64c0-.45.55-.37.75-.63-.16,0-.74-.23-.75.25,0-.53-.66-.2-1-.38-.8-.41-1.57-1.56-2.38-2.27a80.78,80.78,0,0,0-50.62-20.22c-25.53-1.19-46.24,9.65-60.66,24-9.58,9.55-16.51,21.4-20.44,36A74.79,74.79,0,0,0,61,98.9c.2.49-.54,0-.5.37-.21.84.41.85.5,1.39a81.62,81.62,0,0,0,10.1,37.86"/><path class="cls-2" d="M223.61,59.78c.11-.06.22-.11.25-.26.55.5.71,1.39,1.13,2,0,.17-.32.1-.5.12,0,.37.53.22.5.63-1.17-.24-1.63-1.76-1.88-2.51-.15,0-.23,0-.25.12.29-.29-.5-1.45.25-1.76-.17.88.37,1,.5,1.64"/><path class="cls-2" d="M223.68,85.68c-.53.28-.85.14-1.38.24,0,.19-.29.34-.26.88,0,.1.13.13.13.25.78-.3,2.14,0,2.14-1.12,1.06,4.84,1.11,11.11,1.09,16.6-.29.18-.23.26-.63.12.13.38.5.43.63.5a4.63,4.63,0,0,1-.25.89c-.51,0-1,.37-1.38.12.14.4.45.72.87.5.05.3-.23.27-.12.63-.22-.43-1.82,0-2.14.75.15-1.91-.26-4.59.14-6.91.22-1.3,1.76-2.72.76-3.27.16-.34.56-.45.5-1-.45-.26-.9.4-.88,1-.78-.28-.47-1.63-.24-2.27.2,0,.21.12.37.13a.65.65,0,0,1,.51-.63c-.06-.28-.62,0-.88-.13a30.6,30.6,0,0,1-1.24-8.42c.38.15-.14.43,0,.75.56,0,1-.11,1-.62a4.59,4.59,0,0,0,1,.63c.55-.17.13-.54.38-1,.57.06.4.86.5,1.39a2.65,2.65,0,0,1-.88.62c-.29-.1.21-.44.25-.62"/><path class="cls-2" d="M186.53,168.57c.51.14.91.17.89-.5-.42.12-.52-.73-.76-.38.12.24-.17.34-.13.88M86.22,161.19c0-.18.21-.22.26-.38-.33.14-.44-.54-.63-.13.34-.05.11.47.37.51m.26-1.26c0-.35-.4-.36-.5-.63-.39.4.22.51.5.63m134.87-43.08a.84.84,0,0,0,1.13.25.59.59,0,0,0-1.13-.25m1.89-3.52c.33,0,.54,0,.51-.37-.33,0-.54,0-.51.37m-.37-.25c.33,0,.32-.26.37-.5a1.17,1.17,0,0,0-.5-.51c.06.46.32.61.13,1m.13-2.14c-.15,0-.14-.19-.13-.37h-.38c-.05.27.38.69.51.37m-1.77,2.89c.72-.22.71-1.58,1.39-2.38-.22-.4-.59-.16-1-.13,0-.78.27-1.24.26-2h.63c0-.22-.22-.29-.51-.25.39-.23.16-.63.76-.88,0-.17-.32-.11-.5-.13a3.11,3.11,0,0,0,1.76-1c.56-.18.33.42.75.38.35-.39-.54-1,.26-1.26-2.65,29.1-16.64,47.89-35.09,61.53-.57-.18-.89-.62-1.63-.63-.17,0-.2.22-.38.25-.33,1,.71,1.07.38,1.63-.8.47-.47-.44-1.39.25,0,.15.36.43.38.13.14.58-1.52.66-1.38-.38a2.63,2.63,0,0,0-1.39,2.26,83.26,83.26,0,0,1-47.17,11.71c-22.79-1.08-39.84-10.94-52.63-22.24.26-.4,1-.38,1.13-.88-.57-.21-1,.57-1.89.12.13-.67,1.18.35,1.14-.5-.09-.15-.79.13-1,.25-.21-.18.16-.68-.25-.88s-.58.43-.88.13a81.55,81.55,0,0,1-13-16.63c.87,0,1.73-1,2.52-1.5,1.41,2.49,3.11,4.68,4.63,7.05H76.7c1.49.57,2.32,2.75,3.64,3.9A3.45,3.45,0,0,0,80,153c2.94-.1,3.37,3.48,5.77,4.67-.1.27-.59.16-.63.5a.88.88,0,0,0,.88.5c.31-.12-.17-.48,0-.88,12,10.79,27.52,20.31,48.86,22,18.5,1.44,36.94-3.59,49.69-12.09a4.74,4.74,0,0,0,.88-.25,5.09,5.09,0,0,1,2-1.51c.66.3,2.48,1,2.89,0-.14-.33-.15.51-.63.25-.14-.79.84-1.9.51-2.39a79.63,79.63,0,0,0,30.15-46.07c.15-.15.45-.14.75-.13.15-.68-.72-.36-.49-1.13.27-.35.44-.81,1.13-.75-.1-.36-.91,0-.88-.51.12-.21.35-.32.75-.25-.37-.13-.1-.89-.37-1.13"/><path class="cls-2" d="M217.93,70.07c.36-.1.33.18.63.13-.09-.51.12-.72.13-1.13-.32.09-.52-.56-.76-.13.64.19.19.75,0,1.13m-.75-2.51c.25,0,.16.34.5.25a.62.62,0,0,1,.13-.38c-.29,0-.54-.27-.63.13m-.5-3.15c.54.12.64-.2.76-.5-.17,0-.24-.18-.5-.13s-.13.47-.26.63m-8.52-11.58c.29.18.63.56.88.13-.43.09-.16-.52-.63-.38,0,.16-.22.11-.25.25m1-.38c0,.3.23.28.12.63.41-.54.88-.22,1.26-.75-.42,0-.56-.37-1.13-.25,0,.19,0,.43-.25.37m9.77,15.74c-.31.47.65.56.63,1.13-.32,0-.39-.23-.63,0,.3.33.45.81.75,1.13.35.11.33-.17.63-.12.09.34-.26.24-.38.37.2.31.62.39.75.76-.52.15-.49-.26-.88-.25s.08.4,0,.63h-.63a.85.85,0,0,0,0-.76c.32,0,.53-.06.63-.25a7.37,7.37,0,0,0-2.39.12c-.18-.63-.82-1.4-.62-2a112.6,112.6,0,0,0-7.51-13.85,21.53,21.53,0,0,1-2.13-3.65.92.92,0,0,0,.25-1.13c.74-.08,1.46-.33,1.89-.37.88.88,1.43,2.09,2.26,3,0,.12-.16.1-.26.13.1.4.46.55.76.75-.31.24-.16.94-.88.75.07.3.77,0,.88.26.36-.11-.17-.32,0-.63a12.84,12.84,0,0,1,3,5.16,31.52,31.52,0,0,1,4.51,9.44c-.47.05-.23-.61-.63-.63"/><path class="cls-2" d="M202.86,115.7l-11.82,0,0,11.81-9.92,0,0-11.82-11.82,0,0-9.93,11.82,0,0-11.81,9.92,0,0,11.81,11.82,0Zm-44.49-5.39-5.29.38,13.84-36.9,5.57,12.9a28.07,28.07,0,0,0-14.12,23.62M147,110.6,111.87,71.45l49.87.11Zm-27.85.23A22.5,22.5,0,1,1,96.69,88.29a25.74,25.74,0,0,1,3.93.34L94,110a3,3,0,0,0-.13.82,2.8,2.8,0,0,0,5.48.84L106,90.3a22.5,22.5,0,0,1,13.18,20.53M186.52,83a27.85,27.85,0,0,0-8.85,1.41l-7.85-18.32.05-.12,1.59-4.19,5.08,1a2.22,2.22,0,0,0,.51.06,2.58,2.58,0,0,0,2.59-2.58V55.45a2.59,2.59,0,0,0-2.57-2.59l-23.84,0a2.58,2.58,0,0,0-.53,5.11l13.16,2.68-2,5.33-50.26-.12,2.28-7.27A5.58,5.58,0,0,1,121,54.62l.24,0,10.34,0a2.91,2.91,0,1,0,0-5.81l-10.33,0a3,3,0,0,0-1,.17,11.3,11.3,0,0,0-9.83,7.85l-8.22,26.37a28.15,28.15,0,1,0,5.38,1.68l2.25-7.23,33.18,37a5.59,5.59,0,0,0,4.17,1.87h3.61l7.89-.59a28.12,28.12,0,1,0,27.75-33"/></svg>