<svg xmlns="http://www.w3.org/2000/svg" xmlns:xlink="http://www.w3.org/1999/xlink" version="1.1" x="0px" y="0px" viewBox="0 0 144 64" style="enable-background:new 0 0 144 64;" xml:space="preserve" class="svg replaced-svg">
    <g>
        <g>
            <g id="SkinGuardSVG" transform="translate(19.000000, 28.000000)">
                <path d="M58.1381974,0.105622318 L60.6409871,0.105622318 L60.6409871,4.74381974 C60.6409871,5.74034335 61.0129614,6.12150215 62.0186695,6.12150215 L64.4939056,6.12150215 C65.5225751,6.12150215 65.8945494,5.7311588 65.8945494,4.74381974 L65.8945494,0.105622318 L68.3927468,0.105622318 L68.3927468,5.26274678 C68.3927468,7.20987124 67.3457082,8.142103 65.0495708,8.142103 L61.4675966,8.142103 C59.1714592,8.142103 58.1198283,7.22364807 58.1198283,5.26274678 L58.1381974,0.105622318 Z"></path>
                <path d="M74.114721,0.105622318 L76.9757082,0.105622318 L80.9204721,7.91248927 L78.4727897,7.91248927 L77.7885408,6.53480687 L73.3340343,6.53480687 L72.6865236,7.91248927 L70.2296567,7.91248927 L74.114721,0.105622318 Z M74.1560515,4.86781116 L76.9665236,4.86781116 L75.5429185,1.92416309 L74.1560515,4.86781116 Z"></path>
                <path d="M96.4148069,0.105622318 L103.532833,0.105622318 C105.88867,0.105622318 106.715279,0.895493562 106.715279,2.83343348 L106.715279,5.21682403 C106.715279,7.15476395 105.88867,7.94463519 103.532833,7.94463519 L96.4148069,7.94463519 L96.4148069,0.105622318 Z M98.7752361,5.92862661 L102.958798,5.92862661 C103.969099,5.92862661 104.336481,5.6393133 104.336481,4.52339056 L104.336481,3.44420601 C104.336481,2.32828326 103.946137,2.03437768 102.958798,2.03437768 L98.7752361,2.03437768 L98.7752361,5.92862661 Z"></path>
                <path d="M49.5919742,3.19622318 L49.5919742,4.81729614 L53.2382403,4.81729614 C53.2382403,6.02965665 52.7790129,6.1306867 52.0166953,6.1306867 L49.3945064,6.1306867 C48.1729614,6.1306867 47.8560944,5.83678112 47.8560944,4.49583691 L47.8560944,3.5176824 C47.8560944,2.1767382 48.1729614,1.88283262 49.3945064,1.88283262 L55.1440343,1.88283262 L53.9638197,-7.10542736e-15 L48.8342489,-7.10542736e-15 C46.6575107,-7.10542736e-15 45.357897,0.541888412 45.357897,2.83802575 L45.357897,5.15712446 C45.357897,7.4532618 46.6575107,7.99515021 48.8342489,7.99515021 L52.5080687,7.99515021 C55.2634335,7.99515021 55.6354077,7.00781116 55.6354077,5.48317597 L55.6354077,3.18703863 L49.5919742,3.19622318 Z"></path>
                <path d="M90.5642489,5.23978541 L90.8719313,5.23978541 C92.8236481,5.23978541 93.3609442,4.32133047 93.3701288,2.94364807 L93.3701288,2.94364807 C93.372614,2.92844136 93.372614,2.91293203 93.3701288,2.89772532 L93.3701288,2.40175966 C93.3793133,1.02407725 92.8420172,0.105622318 90.8719313,0.105622318 L83.143133,0.105622318 L83.143133,7.91248927 L85.7056223,7.91248927 L85.7056223,5.89188841 L88.1441202,5.89188841 L90.6239485,7.91248927 L93.9349785,7.91248927 L90.5642489,5.23978541 Z M85.7056223,3.94017167 L85.7056223,2.03437768 L89.7054936,2.03437768 C90.5137339,2.03437768 90.8811159,2.16755365 90.8811159,2.86098712 L90.8811159,3.11815451 C90.8811159,3.68300429 90.6285408,3.94017167 89.9396996,3.94017167 L85.7056223,3.94017167 Z"></path>
                <path d="M5.88729614,3.15948498 C9.46008584,3.32480687 9.98819742,3.61871245 9.98819742,5.41888412 C9.98819742,6.71390558 10.4244635,7.98596567 5.11579399,7.98596567 C2.04356223,7.98596567 0,7.94463519 0,5.37755365 L2.80587983,5.37755365 C2.80587983,6.19038627 3.54064378,6.29600858 5.10201717,6.29600858 C6.66339056,6.29600858 7.16854077,6.23630901 7.16854077,5.57502146 C7.16854077,4.91373391 6.93433476,4.90914163 5.42347639,4.84484979 L4.74841202,4.78974249 C1.75424893,4.65197425 0.0183690987,4.66575107 0.0183690987,2.40175966 C0.0183690987,0.13776824 1.96090129,0.00918454936 5.11579399,0.00918454936 C7.75175966,0.00918454936 10.0065665,0.0413304721 10.0065665,2.20429185 L10.0065665,2.53034335 L7.1823176,2.53034335 C7.1823176,1.72669528 6.01128755,1.72669528 4.72545064,1.72669528 C2.98957082,1.72669528 2.84261803,1.95630901 2.84261803,2.39257511 C2.84261803,3.02171674 3.30184549,3.04008584 4.16060086,3.08141631 L5.88729614,3.15948498 Z"></path>
                <polygon points="15.6734335 3.03549356 16.6194421 3.03549356 19.6549356 0.0872532189 23.2874249 0.0872532189 19.2645923 3.9723176 23.6456223 7.96300429 19.9075107 7.92626609 16.6194421 4.84944206 15.6734335 4.84944206 15.6734335 7.92626609 13.0833906 7.92626609 13.0833906 0.0872532189 15.6734335 0.0872532189"></polygon>
                <rect id="Rectangle-path" x="26.1438197" y="0.0872532189" width="2.63137339" height="7.83901288"></rect>
                <polygon points="34.7497425 7.92626609 32.2285837 7.92626609 32.2285837 0.0872532189 36.6279828 0.0872532189 39.9022747 6.10772532 40.0262661 6.10772532 40.007897 0.0872532189 42.515279 0.0872532189 42.515279 7.92626609 38.0561803 7.92626609 34.8278112 1.90579399 34.6900429 1.90579399"></polygon>
            </g>
            <rect id="Rectangle" x="0" y="0" width="144" height="64" fill="none"></rect>
        </g>
    </g>
</svg>
